<svg width="20" height="20" viewBox="0 0 20 20" fill="none" xmlns="http://www.w3.org/2000/svg">
<path fill-rule="evenodd" clip-rule="evenodd" d="M5.20835 2.91666C2.91669 2.91666 2.91669 3.08999 2.91669 5.20832V5.22916C2.91669 6.15166 2.91669 6.81832 3.14252 7.09999C3.36335 7.37332 4.01919 7.49999 5.20835 7.49999C6.39752 7.49999 7.05335 7.37249 7.27419 7.09916C7.50002 6.81832 7.50002 6.15166 7.50002 5.22832C7.50002 3.08999 7.50002 2.91666 5.20835 2.91666ZM5.20835 8.74999C3.80335 8.74999 2.74919 8.60249 2.17002 7.88332C1.66669 7.25916 1.66669 6.40749 1.66669 5.22916L2.29169 5.20832H1.66669C1.66669 2.81666 1.81752 1.66666 5.20835 1.66666C8.59919 1.66666 8.75002 2.81666 8.75002 5.20832C8.75002 6.40666 8.75002 7.25916 8.24669 7.88332C7.66752 8.60249 6.61335 8.74999 5.20835 8.74999Z" fill="#718096"/>
<path fill-rule="evenodd" clip-rule="evenodd" d="M14.375 2.91666C12.0834 2.91666 12.0834 3.08999 12.0834 5.20832V5.22916C12.0834 6.15166 12.0834 6.81832 12.3092 7.09999C12.53 7.37332 13.1859 7.49999 14.375 7.49999C15.5642 7.49999 16.22 7.37249 16.4409 7.09916C16.6667 6.81832 16.6667 6.15166 16.6667 5.22832C16.6667 3.08999 16.6667 2.91666 14.375 2.91666ZM14.375 8.74999C12.97 8.74999 11.9159 8.60249 11.3367 7.88332C10.8334 7.25916 10.8334 6.40749 10.8334 5.22916L11.4584 5.20832H10.8334C10.8334 2.81666 10.9842 1.66666 14.375 1.66666C17.7659 1.66666 17.9167 2.81666 17.9167 5.20832C17.9167 6.40666 17.9167 7.25916 17.4134 7.88332C16.8342 8.60249 15.78 8.74999 14.375 8.74999Z" fill="#718096"/>
<path fill-rule="evenodd" clip-rule="evenodd" d="M5.20835 12.0833C2.91669 12.0833 2.91669 12.2566 2.91669 14.375V14.3958C2.91669 15.3183 2.91669 15.985 3.14252 16.2666C3.36335 16.54 4.01919 16.6666 5.20835 16.6666C6.39752 16.6666 7.05335 16.5391 7.27419 16.2658C7.50002 15.985 7.50002 15.3183 7.50002 14.395C7.50002 12.2566 7.50002 12.0833 5.20835 12.0833ZM5.20835 17.9166C3.80335 17.9166 2.74919 17.7691 2.17002 17.05C1.66669 16.4258 1.66669 15.5741 1.66669 14.3958L2.29169 14.375H1.66669C1.66669 11.9833 1.81752 10.8333 5.20835 10.8333C8.59919 10.8333 8.75002 11.9833 8.75002 14.375C8.75002 15.5733 8.75002 16.4258 8.24669 17.05C7.66752 17.7691 6.61335 17.9166 5.20835 17.9166Z" fill="#718096"/>
<path fill-rule="evenodd" clip-rule="evenodd" d="M14.375 12.0833C12.0834 12.0833 12.0834 12.2566 12.0834 14.375V14.3958C12.0834 15.3183 12.0834 15.985 12.3092 16.2666C12.53 16.54 13.1859 16.6666 14.375 16.6666C15.5642 16.6666 16.22 16.5391 16.4409 16.2658C16.6667 15.985 16.6667 15.3183 16.6667 14.395C16.6667 12.2566 16.6667 12.0833 14.375 12.0833ZM14.375 17.9166C12.97 17.9166 11.9159 17.7691 11.3367 17.05C10.8334 16.4258 10.8334 15.5741 10.8334 14.3958L11.4584 14.375H10.8334C10.8334 11.9833 10.9842 10.8333 14.375 10.8333C17.7659 10.8333 17.9167 11.9833 17.9167 14.375C17.9167 15.5733 17.9167 16.4258 17.4134 17.05C16.8342 17.7691 15.78 17.9166 14.375 17.9166Z" fill="#718096"/>
</svg>
