<svg width="20" height="20" viewBox="0 0 20 20" fill="none" xmlns="http://www.w3.org/2000/svg">
<path d="M10 8.76664C9.65833 8.76664 9.375 8.4833 9.375 8.14164V5.36664C9.375 5.02497 9.65833 4.74164 10 4.74164C10.3417 4.74164 10.625 5.02497 10.625 5.36664V8.14164C10.625 8.49164 10.3417 8.76664 10 8.76664Z" fill="#718096"/>
<path d="M10.0167 16.9583C7.86666 16.9583 5.72499 16.6167 3.68332 15.9333C2.92499 15.6833 2.34999 15.1417 2.09999 14.4583C1.84999 13.775 1.93332 12.9917 2.34166 12.3083L3.39999 10.5417C3.63332 10.15 3.84166 9.41666 3.84166 8.95833V7.20833C3.84166 3.79999 6.60832 1.03333 10.0167 1.03333C13.425 1.03333 16.1917 3.79999 16.1917 7.20833V8.95833C16.1917 9.40833 16.4 10.15 16.6333 10.5417L17.6917 12.3083C18.0833 12.9583 18.15 13.7333 17.8917 14.4417C17.6333 15.15 17.0667 15.6917 16.35 15.9333C14.3083 16.625 12.1667 16.9583 10.0167 16.9583ZM10.0167 2.29166C7.29999 2.29166 5.09166 4.49999 5.09166 7.21666V8.96666C5.09166 9.64166 4.82499 10.6167 4.47499 11.1917L3.41666 12.9667C3.19999 13.325 3.14999 13.7083 3.27499 14.0417C3.39999 14.375 3.68332 14.625 4.08332 14.7583C7.91666 16.0333 12.1333 16.0333 15.9667 14.7583C16.325 14.6417 16.6 14.375 16.725 14.025C16.8583 13.675 16.8167 13.2917 16.625 12.9667L15.5667 11.2C15.2167 10.625 14.95 9.64999 14.95 8.97499V7.22499C14.9417 4.49999 12.7333 2.29166 10.0167 2.29166Z" fill="#718096"/>
<path d="M10 19.0833C9.10834 19.0833 8.23334 18.7167 7.60001 18.0833C6.96667 17.45 6.60001 16.575 6.60001 15.6833H7.85001C7.85001 16.25 8.08334 16.8 8.48334 17.2C8.88334 17.6 9.43334 17.8333 10 17.8333C11.1833 17.8333 12.15 16.8667 12.15 15.6833H13.4C13.4 17.5583 11.875 19.0833 10 19.0833Z" fill="#718096"/>
</svg>
