<svg width="48" height="46" viewBox="0 0 48 46" fill="none" xmlns="http://www.w3.org/2000/svg">
<path d="M25.6254 25.2106C29.9538 27.229 34.4211 28.2312 38.1969 28.034C38.2197 28.0329 38.2414 28.0306 38.2642 28.0291L38.5353 1.19167C38.5448 0.242786 37.4855 -0.327381 36.6991 0.203582L14.1243 15.4337C15.9531 18.9182 20.1765 22.6692 25.6254 25.2106Z" fill="#D9F27E"/>
<path d="M37.2537 30.6108C33.3158 30.6108 28.85 29.5306 24.5463 27.524C18.6094 24.7554 14.1448 20.8068 11.9985 16.8678L0.52015 24.6115C-0.376588 25.2163 -0.05191 26.609 1.02029 26.7548L20.2963 29.3761C21.4306 29.5302 22.4708 30.0901 23.2244 30.9518L36.0307 45.5954C36.7429 46.4095 38.0838 45.9136 38.0948 44.8319L38.2387 30.5861C37.914 30.6009 37.5863 30.6108 37.2537 30.6108Z" fill="#D9F27E"/>
<path d="M37.2536 28.5784C33.3157 28.5784 28.8496 27.4982 24.5463 25.4916C14.4211 20.7696 8.56713 12.616 11.2193 6.92878C13.8718 1.24158 23.881 0.485667 34.0062 5.20762C37.3187 6.75217 40.321 8.75537 42.6881 11.0006C43.1996 11.4859 43.221 12.2936 42.736 12.8052C42.2508 13.3163 41.4431 13.338 40.9315 12.8527C38.7616 10.7943 35.9934 8.95063 32.9271 7.52102C24.3937 3.54128 15.5119 3.76394 13.5327 8.00784C11.5539 12.2514 17.0915 19.1984 25.6253 23.1785C29.9537 25.197 34.418 26.2006 38.1968 26.0016C41.6863 25.8189 44.1093 24.6435 45.0198 22.6917C45.969 20.6566 45.0506 18.3325 44.1131 16.7408C43.7553 16.1337 43.9574 15.3511 44.5649 14.9933C45.1724 14.6356 45.9549 14.838 46.3123 15.4451C48.0773 18.441 48.44 21.398 47.3332 23.7708C46.0048 26.6189 42.8076 28.3169 38.33 28.551C37.9764 28.5692 37.6171 28.5784 37.2536 28.5784Z" fill="#D9F27E"/>
</svg>
