<svg width="213" height="50" viewBox="0 0 213 50" fill="none" xmlns="http://www.w3.org/2000/svg">
<path d="M25.6254 27.2106C29.9538 29.229 34.4211 30.2312 38.1968 30.034C38.2196 30.0329 38.2413 30.0306 38.2642 30.0291L38.5352 3.19167C38.5447 2.24279 37.4854 1.67262 36.6991 2.20358L14.1242 17.4337C15.9531 20.9182 20.1764 24.6692 25.6254 27.2106Z" fill="#D9F27E"/>
<path d="M37.2537 32.6108C33.3158 32.6108 28.85 31.5306 24.5463 29.524C18.6094 26.7554 14.1448 22.8068 11.9985 18.8678L0.52015 26.6115C-0.376588 27.2163 -0.05191 28.609 1.02029 28.7548L20.2963 31.3761C21.4306 31.5302 22.4708 32.0901 23.2244 32.9518L36.0307 47.5954C36.7429 48.4095 38.0838 47.9136 38.0948 46.8319L38.2387 32.5861C37.914 32.6009 37.5863 32.6108 37.2537 32.6108Z" fill="#D9F27E"/>
<path d="M37.2537 30.5784C33.3158 30.5784 28.8496 29.4982 24.5463 27.4916C14.4211 22.7696 8.56719 14.616 11.2193 8.92878C13.8719 3.24158 23.881 2.48567 34.0062 7.20762C37.3188 8.75217 40.3211 10.7554 42.6882 13.0006C43.1997 13.4859 43.221 14.2936 42.7361 14.8052C42.2508 15.3163 41.4431 15.338 40.9316 14.8527C38.7617 12.7943 35.9934 10.9506 32.9272 9.52102C24.3937 5.54128 15.512 5.76394 13.5327 10.0078C11.5539 14.2514 17.0915 21.1984 25.6254 25.1785C29.9538 27.197 34.4181 28.2006 38.1968 28.0016C41.6863 27.8189 44.1094 26.6435 45.0198 24.6917C45.9691 22.6566 45.0506 20.3325 44.1132 18.7408C43.7554 18.1337 43.9575 17.3511 44.565 16.9933C45.1724 16.6356 45.955 16.838 46.3124 17.4451C48.0773 20.441 48.4401 23.398 47.3332 25.7708C46.0049 28.6189 42.8077 30.3169 38.3301 30.551C37.9765 30.5692 37.6172 30.5784 37.2537 30.5784Z" fill="#D9F27E"/>
<path d="M61.732 27V6.63636H66.0374V15.0384H74.7774V6.63636H79.0729V27H74.7774V18.5881H66.0374V27H61.732ZM95.2007 6.63636H99.5061V19.8608C99.5061 21.3456 99.1515 22.6449 98.4422 23.7585C97.7396 24.8722 96.7552 25.7405 95.4891 26.3636C94.223 26.9801 92.7481 27.2884 91.0644 27.2884C89.374 27.2884 87.8958 26.9801 86.6297 26.3636C85.3636 25.7405 84.3792 24.8722 83.6766 23.7585C82.9739 22.6449 82.6226 21.3456 82.6226 19.8608V6.63636H86.928V19.4929C86.928 20.2685 87.097 20.9579 87.4351 21.5611C87.7798 22.1643 88.2637 22.6383 88.8868 22.983C89.5099 23.3277 90.2358 23.5 91.0644 23.5C91.8996 23.5 92.6254 23.3277 93.2419 22.983C93.865 22.6383 94.3456 22.1643 94.6837 21.5611C95.0284 20.9579 95.2007 20.2685 95.2007 19.4929V6.63636ZM103.048 27V6.63636H111.082C112.62 6.63636 113.933 6.91146 115.02 7.46165C116.114 8.00521 116.946 8.77746 117.516 9.77841C118.092 10.7727 118.381 11.9427 118.381 13.2884C118.381 14.6406 118.089 15.804 117.506 16.7784C116.922 17.7462 116.077 18.4886 114.97 19.0057C113.87 19.5227 112.537 19.7812 110.973 19.7812H105.594V16.321H110.277C111.099 16.321 111.782 16.2083 112.325 15.983C112.869 15.7576 113.273 15.4195 113.538 14.9688C113.81 14.518 113.946 13.9579 113.946 13.2884C113.946 12.6122 113.81 12.0421 113.538 11.5781C113.273 11.1141 112.866 10.7628 112.315 10.5241C111.772 10.2789 111.086 10.1562 110.257 10.1562H107.354V27H103.048ZM114.046 17.733L119.107 27H114.354L109.402 17.733H114.046ZM121.423 27V6.63636H135.145V10.1861H125.729V15.0384H134.439V18.5881H125.729V23.4503H135.185V27H121.423ZM155.601 6.63636V27H151.882L143.022 14.1832H142.873V27H138.568V6.63636H142.346L151.136 19.4432H151.315V6.63636H155.601Z" fill="#393C43"/>
<path d="M61.0189 45V36.2727H62.0757V40.1591H66.7291V36.2727H67.786V45H66.7291V41.0966H62.0757V45H61.0189ZM73.8904 42.3239V38.4545H74.896V45H73.8904V43.892H73.8222C73.6688 44.2244 73.4301 44.5071 73.1063 44.7401C72.7824 44.9702 72.3733 45.0852 71.879 45.0852C71.4699 45.0852 71.1063 44.9957 70.7881 44.8168C70.4699 44.6349 70.2199 44.3622 70.0381 43.9986C69.8563 43.6321 69.7654 43.1705 69.7654 42.6136V38.4545H70.771V42.5455C70.771 43.0227 70.9046 43.4034 71.1716 43.6875C71.4415 43.9716 71.7853 44.1136 72.2029 44.1136C72.4529 44.1136 72.7071 44.0497 72.9656 43.9219C73.227 43.794 73.4458 43.598 73.6219 43.3338C73.8009 43.0696 73.8904 42.733 73.8904 42.3239ZM76.738 45V38.4545H77.7096V39.4773H77.7948C77.9312 39.1278 78.1514 38.8565 78.4554 38.6634C78.7593 38.4673 79.1244 38.3693 79.5505 38.3693C79.9823 38.3693 80.3417 38.4673 80.6286 38.6634C80.9184 38.8565 81.1443 39.1278 81.3062 39.4773H81.3744C81.542 39.1392 81.7934 38.8707 82.1286 38.6719C82.4639 38.4702 82.8659 38.3693 83.3346 38.3693C83.9198 38.3693 84.3985 38.5526 84.7707 38.919C85.1429 39.2827 85.3289 39.8494 85.3289 40.6193V45H84.3232V40.6193C84.3232 40.1364 84.1911 39.7912 83.9269 39.5838C83.6627 39.3764 83.3517 39.2727 82.9937 39.2727C82.5335 39.2727 82.1769 39.4119 81.9241 39.6903C81.6713 39.9659 81.5448 40.3153 81.5448 40.7386V45H80.5221V40.517C80.5221 40.1449 80.4014 39.8452 80.1599 39.6179C79.9184 39.3878 79.6073 39.2727 79.2267 39.2727C78.9653 39.2727 78.721 39.3423 78.4937 39.4815C78.2693 39.6207 78.0875 39.8139 77.9482 40.0611C77.8119 40.3054 77.7437 40.5881 77.7437 40.9091V45H76.738ZM89.0938 45.1534C88.6791 45.1534 88.3027 45.0753 87.9646 44.919C87.6265 44.7599 87.358 44.5312 87.1592 44.233C86.9603 43.9318 86.8609 43.5682 86.8609 43.142C86.8609 42.767 86.9348 42.4631 87.0825 42.2301C87.2302 41.9943 87.4277 41.8097 87.6748 41.6761C87.922 41.5426 88.1947 41.4432 88.493 41.3778C88.7941 41.3097 89.0967 41.2557 89.4007 41.2159C89.7984 41.1648 90.1208 41.1264 90.368 41.1009C90.618 41.0724 90.7998 41.0256 90.9134 40.9602C91.0299 40.8949 91.0882 40.7812 91.0882 40.6193V40.5852C91.0882 40.1648 90.9731 39.8381 90.743 39.6051C90.5157 39.3722 90.1705 39.2557 89.7075 39.2557C89.2274 39.2557 88.8509 39.3608 88.5782 39.571C88.3055 39.7812 88.1137 40.0057 88.0029 40.2443L87.0484 39.9034C87.2188 39.5057 87.4461 39.196 87.7302 38.9744C88.0171 38.75 88.3296 38.5937 88.6677 38.5057C89.0086 38.4148 89.3438 38.3693 89.6734 38.3693C89.8836 38.3693 90.1251 38.3949 90.3978 38.446C90.6734 38.4943 90.939 38.5952 91.1947 38.7486C91.4532 38.902 91.6677 39.1335 91.8382 39.4432C92.0086 39.7528 92.0938 40.1676 92.0938 40.6875V45H91.0882V44.1136H91.037C90.9688 44.2557 90.8552 44.4077 90.6961 44.5696C90.537 44.7315 90.3254 44.8693 90.0612 44.983C89.797 45.0966 89.4745 45.1534 89.0938 45.1534ZM89.2473 44.25C89.645 44.25 89.9802 44.1719 90.2529 44.0156C90.5285 43.8594 90.7359 43.6577 90.8751 43.4105C91.0171 43.1634 91.0882 42.9034 91.0882 42.6307V41.7102C91.0455 41.7614 90.9518 41.8082 90.8069 41.8509C90.6649 41.8906 90.5001 41.9261 90.3126 41.9574C90.1279 41.9858 89.9475 42.0114 89.7714 42.0341C89.5981 42.054 89.4575 42.071 89.3495 42.0852C89.0882 42.1193 88.8438 42.1747 88.6166 42.2514C88.3921 42.3253 88.2103 42.4375 88.0711 42.5881C87.9348 42.7358 87.8666 42.9375 87.8666 43.1932C87.8666 43.5426 87.9958 43.8068 88.2544 43.9858C88.5157 44.1619 88.8467 44.25 89.2473 44.25ZM94.9351 41.0625V45H93.9294V38.4545H94.901V39.4773H94.9862C95.1397 39.1449 95.3726 38.8778 95.6851 38.6761C95.9976 38.4716 96.401 38.3693 96.8953 38.3693C97.3385 38.3693 97.7263 38.4602 98.0587 38.642C98.3911 38.821 98.6496 39.0938 98.8343 39.4602C99.0189 39.8239 99.1112 40.2841 99.1112 40.8409V45H98.1056V40.9091C98.1056 40.3949 97.972 39.9943 97.705 39.7074C97.4379 39.4176 97.0715 39.2727 96.6056 39.2727C96.2845 39.2727 95.9976 39.3423 95.7448 39.4815C95.4948 39.6207 95.2973 39.8239 95.1524 40.0909C95.0076 40.358 94.9351 40.6818 94.9351 41.0625ZM104.46 45V36.2727H107.409C108.091 36.2727 108.651 36.3892 109.088 36.6222C109.526 36.8523 109.85 37.169 110.06 37.5724C110.27 37.9759 110.375 38.4347 110.375 38.9489C110.375 39.4631 110.27 39.919 110.06 40.3168C109.85 40.7145 109.527 41.027 109.092 41.2543C108.658 41.4787 108.102 41.5909 107.426 41.5909H105.04V40.6364H107.392C107.858 40.6364 108.233 40.5682 108.517 40.4318C108.804 40.2955 109.011 40.1023 109.139 39.8523C109.27 39.5994 109.335 39.2983 109.335 38.9489C109.335 38.5994 109.27 38.294 109.139 38.0327C109.009 37.7713 108.8 37.5696 108.513 37.4276C108.226 37.2827 107.847 37.2102 107.375 37.2102H105.517V45H104.46ZM108.568 41.0795L110.716 45H109.489L107.375 41.0795H108.568ZM114.674 45.1364C114.043 45.1364 113.499 44.9972 113.042 44.7188C112.587 44.4375 112.236 44.0455 111.989 43.5426C111.745 43.0369 111.623 42.4489 111.623 41.7784C111.623 41.108 111.745 40.517 111.989 40.0057C112.236 39.4915 112.58 39.0909 113.02 38.804C113.464 38.5142 113.981 38.3693 114.571 38.3693C114.912 38.3693 115.249 38.4261 115.581 38.5398C115.914 38.6534 116.216 38.8381 116.489 39.0938C116.762 39.3466 116.979 39.6818 117.141 40.0994C117.303 40.517 117.384 41.0312 117.384 41.642V42.0682H112.339V41.1989H116.361C116.361 40.8295 116.287 40.5 116.14 40.2102C115.995 39.9205 115.787 39.6918 115.517 39.5241C115.25 39.3565 114.935 39.2727 114.571 39.2727C114.171 39.2727 113.824 39.3722 113.532 39.571C113.242 39.767 113.019 40.0227 112.863 40.3381C112.706 40.6534 112.628 40.9915 112.628 41.3523V41.9318C112.628 42.4261 112.714 42.8452 112.884 43.1889C113.057 43.5298 113.297 43.7898 113.604 43.9688C113.911 44.1449 114.267 44.233 114.674 44.233C114.938 44.233 115.177 44.196 115.39 44.1222C115.606 44.0455 115.792 43.9318 115.948 43.7812C116.104 43.6278 116.225 43.4375 116.31 43.2102L117.282 43.483C117.179 43.8125 117.008 44.1023 116.766 44.3523C116.525 44.5994 116.226 44.7926 115.871 44.9318C115.516 45.0682 115.117 45.1364 114.674 45.1364ZM123.55 39.9205L122.647 40.1761C122.59 40.0256 122.506 39.8793 122.395 39.7372C122.287 39.5923 122.14 39.473 121.952 39.3793C121.765 39.2855 121.525 39.2386 121.232 39.2386C120.831 39.2386 120.498 39.331 120.231 39.5156C119.966 39.6974 119.834 39.929 119.834 40.2102C119.834 40.4602 119.925 40.6577 120.107 40.8026C120.289 40.9474 120.573 41.0682 120.959 41.1648L121.931 41.4034C122.516 41.5455 122.952 41.7628 123.239 42.0554C123.526 42.3452 123.669 42.7187 123.669 43.1761C123.669 43.5511 123.562 43.8864 123.346 44.1818C123.133 44.4773 122.834 44.7102 122.451 44.8807C122.067 45.0511 121.621 45.1364 121.113 45.1364C120.445 45.1364 119.892 44.9915 119.455 44.7017C119.017 44.4119 118.741 43.9886 118.624 43.4318L119.579 43.1932C119.669 43.5455 119.841 43.8097 120.094 43.9858C120.35 44.1619 120.684 44.25 121.096 44.25C121.564 44.25 121.937 44.1506 122.212 43.9517C122.491 43.75 122.63 43.5085 122.63 43.2273C122.63 43 122.55 42.8097 122.391 42.6562C122.232 42.5 121.988 42.3835 121.658 42.3068L120.567 42.0511C119.968 41.9091 119.527 41.6889 119.246 41.3906C118.968 41.0895 118.829 40.7131 118.829 40.2614C118.829 39.892 118.932 39.5653 119.14 39.2812C119.35 38.9972 119.635 38.7741 119.996 38.6122C120.36 38.4503 120.772 38.3693 121.232 38.3693C121.88 38.3693 122.388 38.5114 122.758 38.7955C123.13 39.0795 123.394 39.4545 123.55 39.9205ZM127.842 45.1364C127.252 45.1364 126.733 44.9957 126.287 44.7145C125.844 44.4332 125.497 44.0398 125.247 43.5341C125 43.0284 124.877 42.4375 124.877 41.7614C124.877 41.0795 125 40.4844 125.247 39.9759C125.497 39.4673 125.844 39.0724 126.287 38.7912C126.733 38.5099 127.252 38.3693 127.842 38.3693C128.433 38.3693 128.95 38.5099 129.394 38.7912C129.84 39.0724 130.186 39.4673 130.433 39.9759C130.683 40.4844 130.808 41.0795 130.808 41.7614C130.808 42.4375 130.683 43.0284 130.433 43.5341C130.186 44.0398 129.84 44.4332 129.394 44.7145C128.95 44.9957 128.433 45.1364 127.842 45.1364ZM127.842 44.233C128.291 44.233 128.661 44.1179 128.95 43.8878C129.24 43.6577 129.455 43.3551 129.594 42.9801C129.733 42.6051 129.803 42.1989 129.803 41.7614C129.803 41.3239 129.733 40.9162 129.594 40.5384C129.455 40.1605 129.24 39.8551 128.95 39.6222C128.661 39.3892 128.291 39.2727 127.842 39.2727C127.394 39.2727 127.024 39.3892 126.734 39.6222C126.445 39.8551 126.23 40.1605 126.091 40.5384C125.952 40.9162 125.882 41.3239 125.882 41.7614C125.882 42.1989 125.952 42.6051 126.091 42.9801C126.23 43.3551 126.445 43.6577 126.734 43.8878C127.024 44.1179 127.394 44.233 127.842 44.233ZM136.468 42.3239V38.4545H137.474V45H136.468V43.892H136.4C136.247 44.2244 136.008 44.5071 135.684 44.7401C135.361 44.9702 134.951 45.0852 134.457 45.0852C134.048 45.0852 133.684 44.9957 133.366 44.8168C133.048 44.6349 132.798 44.3622 132.616 43.9986C132.434 43.6321 132.343 43.1705 132.343 42.6136V38.4545H133.349V42.5455C133.349 43.0227 133.483 43.4034 133.75 43.6875C134.02 43.9716 134.363 44.1136 134.781 44.1136C135.031 44.1136 135.285 44.0497 135.544 43.9219C135.805 43.794 136.024 43.598 136.2 43.3338C136.379 43.0696 136.468 42.733 136.468 42.3239ZM139.316 45V38.4545H140.288V39.4432H140.356C140.475 39.1193 140.691 38.8565 141.004 38.6548C141.316 38.4531 141.668 38.3523 142.06 38.3523C142.134 38.3523 142.227 38.3537 142.337 38.3565C142.448 38.3594 142.532 38.3636 142.589 38.3693V39.392C142.555 39.3835 142.477 39.3707 142.354 39.3537C142.235 39.3338 142.109 39.3239 141.975 39.3239C141.657 39.3239 141.373 39.3906 141.123 39.5241C140.876 39.6548 140.68 39.8366 140.535 40.0696C140.393 40.2997 140.322 40.5625 140.322 40.858V45H139.316ZM146.241 45.1364C145.627 45.1364 145.099 44.9915 144.656 44.7017C144.212 44.4119 143.872 44.0128 143.633 43.5043C143.394 42.9957 143.275 42.4148 143.275 41.7614C143.275 41.0966 143.397 40.5099 143.641 40.0014C143.889 39.4901 144.232 39.0909 144.673 38.804C145.116 38.5142 145.633 38.3693 146.224 38.3693C146.684 38.3693 147.099 38.4545 147.468 38.625C147.837 38.7955 148.14 39.0341 148.376 39.3409C148.612 39.6477 148.758 40.0057 148.815 40.4148H147.809C147.732 40.1165 147.562 39.8523 147.298 39.6222C147.036 39.3892 146.684 39.2727 146.241 39.2727C145.849 39.2727 145.505 39.375 145.21 39.5795C144.917 39.7812 144.688 40.0668 144.524 40.4361C144.362 40.8026 144.281 41.233 144.281 41.7273C144.281 42.233 144.36 42.6733 144.519 43.0483C144.681 43.4233 144.908 43.7145 145.201 43.9219C145.497 44.1293 145.843 44.233 146.241 44.233C146.502 44.233 146.739 44.1875 146.953 44.0966C147.166 44.0057 147.346 43.875 147.494 43.7045C147.641 43.5341 147.747 43.3295 147.809 43.0909H148.815C148.758 43.4773 148.617 43.8253 148.393 44.1349C148.171 44.4418 147.877 44.6861 147.511 44.8679C147.147 45.0469 146.724 45.1364 146.241 45.1364ZM153.029 45.1364C152.399 45.1364 151.854 44.9972 151.397 44.7188C150.943 44.4375 150.592 44.0455 150.345 43.5426C150.1 43.0369 149.978 42.4489 149.978 41.7784C149.978 41.108 150.1 40.517 150.345 40.0057C150.592 39.4915 150.935 39.0909 151.376 38.804C151.819 38.5142 152.336 38.3693 152.927 38.3693C153.268 38.3693 153.604 38.4261 153.937 38.5398C154.269 38.6534 154.572 38.8381 154.845 39.0938C155.117 39.3466 155.335 39.6818 155.497 40.0994C155.658 40.517 155.739 41.0312 155.739 41.642V42.0682H150.694V41.1989H154.717C154.717 40.8295 154.643 40.5 154.495 40.2102C154.35 39.9205 154.143 39.6918 153.873 39.5241C153.606 39.3565 153.291 39.2727 152.927 39.2727C152.526 39.2727 152.18 39.3722 151.887 39.571C151.597 39.767 151.374 40.0227 151.218 40.3381C151.062 40.6534 150.984 40.9915 150.984 41.3523V41.9318C150.984 42.4261 151.069 42.8452 151.239 43.1889C151.413 43.5298 151.653 43.7898 151.96 43.9688C152.266 44.1449 152.623 44.233 153.029 44.233C153.293 44.233 153.532 44.196 153.745 44.1222C153.961 44.0455 154.147 43.9318 154.303 43.7812C154.46 43.6278 154.58 43.4375 154.666 43.2102L155.637 43.483C155.535 43.8125 155.363 44.1023 155.122 44.3523C154.88 44.5994 154.582 44.7926 154.227 44.9318C153.872 45.0682 153.472 45.1364 153.029 45.1364Z" fill="#70747B"/>
</svg>
