<svg width="60" height="60" viewBox="0 0 60 60" fill="none" xmlns="http://www.w3.org/2000/svg">
<rect x="0.25" y="0.25" width="59.5" height="59.5" rx="11.75" stroke="#FCCE44" stroke-width="0.5"/>
<path d="M19.7683 17.1667H29.2533C30.0466 17.1667 30.6883 17.8201 30.6883 18.6251V20.2234C30.6883 20.8067 30.3266 21.5301 29.965 21.8917L26.8849 24.6684C26.4533 25.0301 26.1733 25.7534 26.1733 26.3367V29.4634C26.1733 29.8951 25.8816 30.4784 25.5316 30.7001L24.5166 31.3651C23.5833 31.9484 22.2883 31.2951 22.2883 30.1284V26.2667C22.2883 25.7534 21.9966 25.1001 21.7166 24.7384L18.9866 21.8217C18.6249 21.4601 18.3333 20.8067 18.3333 20.3751V18.6951C18.3333 17.8201 18.9749 17.1667 19.7683 17.1667Z" fill="#FCCE44"/>
<path d="M35.8333 18.3333H33.0333C32.7066 18.3333 32.4499 18.5899 32.4499 18.9166C32.4499 19.4766 32.4499 20.2233 32.4499 20.2233C32.4499 21.3783 31.8316 22.5099 31.2249 23.1283L28.0516 25.9633C28.0166 26.0449 27.9583 26.1616 27.9233 26.2549V29.4633C27.9233 30.5249 27.2933 31.6799 26.4299 32.2049L25.4733 32.8233C24.9366 33.1616 24.3416 33.3249 23.7466 33.3249C23.2099 33.3249 22.6733 33.1849 22.1833 32.9166C21.5574 32.57 21.0905 32.0406 20.8153 31.4203C20.6991 31.1583 20.6666 30.8695 20.6666 30.5829V27.9116C20.6666 27.7599 20.6083 27.6083 20.4916 27.5033L19.3249 26.3366C18.9633 25.9633 18.3333 26.2199 18.3333 26.7449V35.8333C18.3333 39.0533 20.9466 41.6666 24.1666 41.6666H35.8333C39.0533 41.6666 41.6666 39.0533 41.6666 35.8333V24.1666C41.6666 20.9466 39.0533 18.3333 35.8333 18.3333ZM36.9999 36.7083H28.8333C28.3549 36.7083 27.9583 36.3116 27.9583 35.8333C27.9583 35.3549 28.3549 34.9583 28.8333 34.9583H36.9999C37.4783 34.9583 37.8749 35.3549 37.8749 35.8333C37.8749 36.3116 37.4783 36.7083 36.9999 36.7083ZM36.9999 32.0416H31.1666C30.6883 32.0416 30.2916 31.6449 30.2916 31.1666C30.2916 30.6883 30.6883 30.2916 31.1666 30.2916H36.9999C37.4783 30.2916 37.8749 30.6883 37.8749 31.1666C37.8749 31.6449 37.4783 32.0416 36.9999 32.0416Z" fill="#FCCE44"/>
</svg>
