<svg width="60" height="60" viewBox="0 0 60 60" fill="none" xmlns="http://www.w3.org/2000/svg">
<rect x="0.25" y="0.25" width="59.5" height="59.5" rx="11.75" stroke="#FCCE44" stroke-width="0.5"/>
<path d="M35.8333 20.0833H24.1667C20.6667 20.0833 18.3333 21.8333 18.3333 25.9166V34.0833C18.3333 38.1666 20.6667 39.9166 24.1667 39.9166H35.8333C39.3333 39.9166 41.6667 38.1666 41.6667 34.0833V25.9166C41.6667 21.8333 39.3333 20.0833 35.8333 20.0833ZM36.3817 27.1883L32.73 30.1049C31.96 30.7233 30.98 31.0266 30 31.0266C29.02 31.0266 28.0283 30.7233 27.27 30.1049L23.6183 27.1883C23.245 26.8849 23.1867 26.3249 23.4783 25.9516C23.7817 25.5783 24.33 25.5083 24.7033 25.8116L28.355 28.7283C29.2417 29.4399 30.7467 29.4399 31.6333 28.7283L35.285 25.8116C35.6583 25.5083 36.2183 25.5666 36.51 25.9516C36.8133 26.3249 36.755 26.8849 36.3817 27.1883Z" fill="#FCCE44"/>
</svg>
