<svg width="60" height="60" viewBox="0 0 60 60" fill="none" xmlns="http://www.w3.org/2000/svg">
<rect width="60" height="60" rx="12" fill="#D9F27E"/>
<path d="M26.4999 18.3333C23.4433 18.3333 20.9583 20.8183 20.9583 23.875C20.9583 26.8733 23.3033 29.3 26.36 29.405C26.4533 29.3933 26.5466 29.3933 26.6166 29.405C26.64 29.405 26.6516 29.405 26.6749 29.405C26.6866 29.405 26.6866 29.405 26.6983 29.405C29.685 29.3 32.03 26.8733 32.0416 23.875C32.0416 20.8183 29.5566 18.3333 26.4999 18.3333Z" fill="#222222"/>
<path d="M32.4267 32.5083C29.1717 30.3383 23.8633 30.3383 20.585 32.5083C19.1033 33.5 18.2867 34.8417 18.2867 36.2767C18.2867 37.7117 19.1033 39.0417 20.5733 40.0217C22.2067 41.1183 24.3533 41.6667 26.5 41.6667C28.6467 41.6667 30.7933 41.1183 32.4267 40.0217C33.8967 39.03 34.7133 37.7 34.7133 36.2533C34.7017 34.8183 33.8967 33.4883 32.4267 32.5083Z" fill="#222222"/>
<path d="M39.3216 24.5633C39.5083 26.8267 37.8983 28.81 35.67 29.0783C35.6583 29.0783 35.6583 29.0783 35.6466 29.0783H35.6116C35.5416 29.0783 35.4716 29.0783 35.4133 29.1017C34.2816 29.16 33.2433 28.7983 32.4616 28.1333C33.6633 27.06 34.3516 25.45 34.2116 23.7C34.13 22.755 33.8033 21.8917 33.3133 21.1567C33.7566 20.935 34.27 20.795 34.795 20.7483C37.0816 20.55 39.1233 22.2533 39.3216 24.5633Z" fill="#222222"/>
<path d="M41.655 35.355C41.5617 36.4867 40.8383 37.4667 39.625 38.1317C38.4583 38.7733 36.9883 39.0767 35.53 39.0417C36.37 38.2833 36.86 37.3383 36.9533 36.335C37.07 34.8883 36.3817 33.5 35.005 32.3917C34.2233 31.7733 33.3133 31.2833 32.3217 30.9217C34.9 30.175 38.1433 30.6767 40.1383 32.2867C41.2117 33.15 41.76 34.235 41.655 35.355Z" fill="#222222"/>
</svg>
