<svg width="143" height="125" viewBox="0 0 143 125" fill="none" xmlns="http://www.w3.org/2000/svg">
<path d="M40.1922 61.4698C40.7521 62.5362 41.0811 63.6548 41.1972 64.7581L42.4829 64.0874C42.6262 64.0125 42.8031 64.0691 42.8764 64.213C44.7076 67.8141 46.5384 71.4147 48.3696 75.0158C48.4686 75.2105 48.3242 75.4407 48.1055 75.4359C47.0821 75.4133 45.4352 75.5287 43.6286 76.3335C41.5431 77.2625 40.2816 78.6475 39.6852 79.407C39.6027 79.5119 39.458 79.555 39.3378 79.4965C39.2829 79.4699 39.2385 79.4268 39.2092 79.3709L37.2293 75.5985L38.9088 78.798C39.1517 79.2609 38.9725 79.8326 38.508 80.0749L36.7478 80.9936C36.6009 81.0704 36.4192 81.0137 36.3422 80.8672L34.2905 76.9586C33.1089 74.7074 31.5092 72.6919 29.5348 71.0856C28.617 70.3389 27.819 69.3802 27.2203 68.2397C25.0993 64.1991 26.2842 59.4082 29.8664 57.5388C33.4482 55.6691 38.0712 57.4292 40.1922 61.4698Z" fill="url(#paint0_linear_0_831)"/>
<path d="M42.4957 63.4787C41.3321 64.0859 41.7827 67.2336 43.5022 70.5095C45.2216 73.785 47.5584 75.9485 48.7221 75.3413C49.8857 74.7341 49.4351 71.5865 47.7156 68.3106C45.9962 65.0347 43.659 62.8715 42.4957 63.4787Z" fill="url(#paint1_linear_0_831)"/>
<path opacity="0.3" d="M42.6789 63.8006C41.8703 64.4015 42.8174 67.4097 44.7948 70.5193C45.355 71.4009 45.9379 72.1958 46.5043 72.8688C46.1511 72.3997 45.7972 71.8897 45.4521 71.3464C43.475 68.236 42.8994 65.7964 43.7081 65.1958C44.287 64.7658 45.2374 65.1183 46.6674 66.8171C44.9981 64.6025 43.3457 63.3056 42.6789 63.8006Z" fill="white"/>
<path d="M48.4707 73.6026C49.0756 73.2869 48.5173 71.033 47.2236 68.5684C45.93 66.1038 44.391 64.3617 43.7861 64.6774C43.1812 64.9931 43.7395 67.2469 45.0331 69.7116C46.3267 72.1762 47.8658 73.9182 48.4707 73.6026Z" fill="#9D9B9C"/>
<path d="M29.8667 57.5407C26.2842 59.4101 25.0993 64.201 27.2203 68.2419C29.0061 71.6438 32.5663 73.4292 35.7853 72.792C32.9513 72.7946 30.073 71.0611 28.5261 68.114C26.4051 64.0731 27.59 59.2822 31.1725 57.4128C31.7379 57.1176 32.3296 56.913 32.933 56.7932C31.8815 56.795 30.8358 57.0347 29.8667 57.5407Z" fill="#9D9B9C"/>
<path opacity="0.6" d="M36.6222 58.1939C34.5913 57.1143 32.3875 57.282 31.6998 58.5687C31.0121 59.855 32.1006 61.773 34.1315 62.8525C36.1624 63.9321 38.3662 63.7644 39.0539 62.4777C39.742 61.1914 38.6531 59.273 36.6222 58.1939Z" fill="url(#paint2_linear_0_831)"/>
<path opacity="0.6" d="M36.8775 58.9077C36.1195 58.5048 35.2973 58.5676 35.0405 59.0477C34.7836 59.5277 35.19 60.2434 35.948 60.6463C36.7061 61.0493 37.5282 60.9864 37.7851 60.5064C38.0415 60.0264 37.6352 59.3107 36.8775 58.9077Z" fill="url(#paint3_linear_0_831)"/>
<path d="M38.6589 78.3231L38.9084 78.798C39.1514 79.2609 38.9722 79.8326 38.5076 80.0748L36.7475 80.9936C36.6006 81.0704 36.4189 81.0137 36.3419 80.8672L34.835 77.9961C35.3988 78.9726 36.0499 80.3583 36.8625 79.9908C38.0628 79.4479 38.9883 79.0074 38.6589 78.3231Z" fill="#9D9B9C"/>
<path d="M41.9198 64.3811C42.0201 65.7142 42.6415 67.307 43.6106 69.153C44.8963 71.6022 46.5274 73.4292 47.7548 73.941C47.7768 73.9403 47.7999 73.9392 47.8215 73.9384C47.8277 73.9505 47.834 73.9629 47.8402 73.975C48.2194 74.1163 48.5572 74.1266 48.8305 73.9841C49.0742 73.8566 49.2478 73.618 49.3504 73.2914C49.4314 74.3257 49.2317 75.0764 48.7232 75.3417C48.5506 75.4319 48.352 75.4604 48.1337 75.4341C48.1245 75.4348 48.1153 75.4355 48.1058 75.4352C47.0825 75.4122 45.4356 75.5283 43.6286 76.3332C41.5453 77.2611 40.2842 78.6442 39.6874 79.4041C39.5686 79.5553 39.3305 79.5568 39.225 79.3972C39.2198 79.3888 39.2144 79.3796 39.2092 79.3701L35.7872 72.7924L39.4727 77.8708C39.4778 77.88 39.4829 77.8887 39.488 77.8971C39.5939 78.0575 39.8321 78.0553 39.9508 77.9044C40.5476 77.1442 41.8091 75.761 43.892 74.8335C44.6589 74.4915 45.3971 74.2745 46.0709 74.139C45.2 73.2651 44.2873 72.0026 43.5033 70.5087C42.4814 68.5612 41.9077 66.6604 41.8545 65.3101C41.4383 66.9044 39.7145 67.8707 39.7145 67.8707C41.1382 66.9709 41.1976 64.7574 41.1976 64.7574L41.9198 64.3811Z" fill="#9D9B9C"/>
<path opacity="0.6" d="M44.5402 64.7029C44.5402 64.7029 41.7161 62.4653 42.9365 66.4247C42.9369 66.4247 42.4847 63.7078 44.5402 64.7029Z" fill="white"/>
<path d="M43.7532 65.1969C43.8184 66.0861 44.4035 67.718 45.3341 69.4745C46.4047 71.4955 47.5991 73.0518 48.2854 73.3904C50.3727 71.4842 53.2173 68.8954 55.1244 67.1437C55.3607 66.8715 55.6574 66.6501 55.9949 66.5219C56.3712 66.3531 58.4519 65.4208 58.8725 65.2323L63.4769 63.1689C64.4738 62.7221 64.7482 61.1213 64.1016 59.5335C63.4549 57.9458 62.1143 56.928 61.0558 57.2236L56.1667 58.5881C55.512 58.774 53.4624 59.3406 52.8436 59.5156C51.5818 59.8667 50.5145 60.6551 49.4483 61.3821C48.0062 62.3458 45.6452 63.9292 43.7532 65.1969Z" fill="url(#paint4_linear_0_831)"/>
<path opacity="0.3" d="M53.4752 63.059C52.741 63.0845 52.9099 64.1261 52.9546 64.7095C53.0004 65.5059 53.3235 66.9965 54.3315 66.8525C54.8015 66.7155 54.7415 66.2611 54.6759 65.7525C54.6381 65.4701 54.5791 65.1413 54.4982 64.7884C54.3388 64.2028 54.171 63.158 53.4752 63.059Z" fill="#FE1157"/>
<path opacity="0.3" d="M53.8577 59.9328C53.772 60.2328 53.9867 60.852 54.3494 60.7625C54.9591 60.6069 54.0897 58.6206 53.8577 59.9328Z" fill="#FE1157"/>
<path opacity="0.3" d="M57.5638 59.6271C56.3272 58.8412 55.8912 60.3595 56.2547 61.5016C56.5481 62.5351 57.3311 63.7962 58.309 64.0311C60.2193 63.8923 58.6145 60.3413 57.5638 59.6271Z" fill="#FE1157"/>
<path opacity="0.3" d="M49.1684 66.6556C49.083 67.2902 49.7432 67.4619 50.1602 67.284C50.8219 66.9205 49.4322 65.16 49.1684 66.6556Z" fill="#FE1157"/>
<path opacity="0.15" d="M55.1244 67.1442C55.3607 66.872 55.6574 66.6506 55.9949 66.5224C56.3712 66.3536 58.4519 65.4213 58.8725 65.2328L63.4769 63.1694C64.4738 62.7226 64.7482 61.1217 64.1016 59.534C63.4549 57.9463 62.1143 56.9285 61.0558 57.224L59.6921 57.6047C60.279 58.4665 60.4201 59.5223 59.5496 60.7597C56.8716 64.5668 53.6203 62.0069 49.4937 66.3558C47.003 68.9807 46.1021 66.4394 44.9095 64.4228C44.5131 64.6884 44.124 64.9493 43.7532 65.1977C43.8184 66.0869 44.4035 67.7188 45.3341 69.4753C46.4047 71.4963 47.5991 73.0526 48.2854 73.3913C50.3727 71.4843 53.2173 68.8955 55.1244 67.1442Z" fill="#FF0037"/>
<path opacity="0.15" d="M55.1244 67.1441C55.3607 66.8719 55.6575 66.6505 55.9949 66.5223C56.3712 66.3535 58.4519 65.4212 58.8725 65.2327L63.4769 63.1693C64.4738 62.7225 64.7483 61.1216 64.1016 59.5339C64.0726 59.463 64.0419 59.3933 64.0103 59.3246C63.1153 60.7651 61.4409 62.3174 58.3522 63.5193C50.5031 66.5742 50.1803 70.0945 46.8664 69.5136C46.1065 69.3802 45.3887 68.9071 44.734 68.2569C44.9132 68.6503 45.114 69.0591 45.3342 69.4749C46.4047 71.4959 47.5992 73.0522 48.2854 73.3908C50.3727 71.4842 53.2173 68.8955 55.1244 67.1441Z" fill="#FF0037"/>
<path d="M57.5469 60.2302C56.0729 60.7947 54.0702 61.1987 52.8472 62.2951C52.3057 62.7802 50.9603 64.0311 50.3954 64.5491C49.1563 65.6254 47.4284 63.2909 48.7756 62.3488C50.3598 61.3686 52.0346 59.9584 53.8614 59.6066C54.6019 59.4506 56.362 59.1744 57.1138 59.0352C57.7608 58.9216 58.1606 60.0238 57.5469 60.2302Z" fill="url(#paint5_linear_0_831)"/>
<path d="M47.9208 66.1741C47.3624 66.4715 46.619 66.1902 46.2633 65.5447C45.9075 64.8995 46.0764 64.1396 46.6377 63.8488C47.1961 63.5595 47.9325 63.8441 48.285 64.4826C48.6378 65.1216 48.4763 65.8782 47.9208 66.1741Z" fill="url(#paint6_linear_0_831)"/>
<path opacity="0.05" d="M55.4335 125C79.1864 125 98.4419 121.314 98.4419 116.767C98.4419 112.219 79.1864 108.533 55.4335 108.533C31.6807 108.533 12.4252 112.219 12.4252 116.767C12.4252 121.314 31.6807 125 55.4335 125Z" fill="#FE1157"/>
<path d="M142.996 109.1C142.996 109.1 129.945 93.1803 117.433 91.3274C103.709 89.2947 101.724 91.6919 100.966 93.4693C100.207 95.2491 102.096 103.115 114.833 102.924C126.561 102.749 135.935 104.036 142.996 109.1Z" fill="url(#paint7_linear_0_831)"/>
<path opacity="0.3" d="M106.108 98.2127C106.846 96.469 108.768 94.1027 121.989 95.8771C129.381 96.8686 137.021 103.081 141.729 107.64C138.241 103.754 127.628 92.8369 117.433 91.3274C103.709 89.2947 101.724 91.6919 100.966 93.4693C100.423 94.7428 101.245 99.1614 106.562 101.497C105.901 100.078 105.858 98.8023 106.108 98.2127Z" fill="#BC4C00"/>
<path d="M105.911 112.553C105.911 112.553 105.811 109.018 104.303 107.454C102.649 105.74 102.126 105.858 101.835 106.02C101.544 106.183 100.973 107.452 102.727 108.761C104.343 109.966 105.483 111.124 105.911 112.553Z" fill="url(#paint8_linear_0_831)"/>
<path opacity="0.3" d="M102.035 107.205C102.32 107.045 102.831 106.924 104.444 108.551C105.346 109.461 105.732 111.108 105.892 112.222C105.827 111.327 105.532 108.728 104.303 107.454C102.649 105.74 102.126 105.858 101.835 106.02C101.627 106.137 101.273 106.825 101.751 107.7C101.811 107.438 101.939 107.26 102.035 107.205Z" fill="#BC4C00"/>
<path d="M107.403 110.61C107.403 110.61 107.358 109 106.671 108.287C105.917 107.506 105.678 107.56 105.546 107.634C105.413 107.708 105.153 108.287 105.952 108.883C106.688 109.432 107.208 109.959 107.403 110.61Z" fill="url(#paint9_linear_0_831)"/>
<path opacity="0.3" d="M105.637 108.174C105.766 108.101 105.999 108.046 106.735 108.787C107.146 109.201 107.321 109.952 107.395 110.46C107.365 110.052 107.231 108.868 106.671 108.287C105.917 107.506 105.678 107.56 105.546 107.634C105.451 107.687 105.29 108.001 105.508 108.4C105.535 108.279 105.593 108.198 105.637 108.174Z" fill="#BC4C00"/>
<path d="M113.288 85.5997C113.288 85.5997 111.818 88.8183 109.819 89.6739C107.626 90.6124 107.19 90.3004 106.986 90.0381C106.782 89.7754 106.749 88.3846 108.876 87.8589C110.835 87.3752 112.337 86.7509 113.288 85.5997Z" fill="url(#paint10_linear_0_831)"/>
<path opacity="0.3" d="M107.632 89.0243C107.832 89.2819 108.256 89.5913 110.377 88.7178C111.562 88.2294 112.56 86.8623 113.142 85.8978C112.733 86.6968 111.448 88.9768 109.819 89.6739C107.626 90.6124 107.19 90.3004 106.986 90.0381C106.84 89.85 106.782 89.0791 107.563 88.4581C107.516 88.7233 107.565 88.937 107.632 89.0243Z" fill="#BC4C00"/>
<path d="M113.905 87.9681C113.905 87.9681 113.236 89.4346 112.324 89.8244C111.325 90.2518 111.127 90.1101 111.034 89.9902C110.94 89.8704 110.926 89.2369 111.895 88.9973C112.787 88.7773 113.472 88.4928 113.905 87.9681Z" fill="url(#paint11_linear_0_831)"/>
<path opacity="0.3" d="M111.328 89.5288C111.419 89.6461 111.612 89.7871 112.579 89.3893C113.119 89.1668 113.573 88.5439 113.839 88.1044C113.652 88.4683 113.067 89.5073 112.325 89.8251C111.326 90.2529 111.127 90.1108 111.034 89.991C110.967 89.9051 110.941 89.554 111.297 89.2709C111.275 89.3915 111.297 89.489 111.328 89.5288Z" fill="#BC4C00"/>
<path d="M143 109.086C143 109.086 123.36 115.392 111.844 110.179C99.2128 104.461 98.8537 101.374 99.1867 99.4716C99.5205 97.5668 105.396 91.9842 115.986 99.035C125.737 105.528 134.31 109.518 143 109.086Z" fill="url(#paint12_linear_0_831)"/>
<path opacity="0.3" d="M106.09 98.2708C105.759 100.134 106.083 103.161 118.151 108.824C124.898 111.99 134.701 110.907 141.14 109.626C136.092 111.002 121.228 114.427 111.845 110.179C99.2131 104.461 98.8537 101.374 99.1871 99.472C99.426 98.1089 102.525 94.8433 108.264 95.7591C106.934 96.5924 106.203 97.6406 106.09 98.2708Z" fill="#BC4C00"/>
<path d="M44.0298 60.6449C44.9465 64.6514 45.9236 71.4016 43.9763 78.9887C41.6783 87.9411 36.3367 93.9719 33.262 96.9669C57.009 105.293 79.2879 108.119 98.8416 108.756C99.9777 107.85 103.896 104.529 105.717 98.6332C107.626 92.4533 106.041 87.2821 105.598 85.9643C88.811 75.9949 68.5385 66.4017 44.0298 60.6449Z" fill="url(#paint13_linear_0_831)"/>
<path opacity="0.15" d="M44.0298 60.6449C44.4544 62.5015 44.893 64.9532 45.0472 67.7936C63.8542 72.6514 80.1024 79.4428 94.1471 86.6727C99.736 89.5496 102.276 96.2571 100.4 102.534C100.381 102.597 100.362 102.66 100.342 102.724C99.5975 105.131 98.5082 107.118 97.3867 108.705C97.8732 108.724 98.3576 108.741 98.8412 108.757C99.9774 107.851 103.895 104.53 105.717 98.6335C107.626 92.4536 106.041 87.2824 105.598 85.9647C88.811 75.9949 68.5385 66.4017 44.0298 60.6449Z" fill="#002442"/>
<path opacity="0.15" d="M44.0298 60.6449C44.2753 61.7178 44.5251 62.9906 44.7223 64.4216C65.1831 69.4 82.6532 76.8958 97.5724 84.9184C102.961 87.8158 105.394 94.4629 103.544 100.652C103.525 100.714 103.506 100.777 103.487 100.839C102.47 104.13 100.811 106.62 99.3252 108.358C100.84 107.065 104.1 103.87 105.718 98.6335C107.627 92.4536 106.041 87.2824 105.599 85.9647C88.811 75.9949 68.5385 66.4017 44.0298 60.6449Z" fill="#002442"/>
<path opacity="0.6" d="M69.6735 97.5354C82.3622 100.028 91.5626 101.108 91.1269 102.818C90.7221 104.462 80.775 106.425 67.9951 104.394C53.2257 102.13 40.6535 95.6141 41.1712 93.4809C41.6874 91.2532 55.0056 94.7373 69.6735 97.5354Z" fill="url(#paint14_linear_0_831)"/>
<path opacity="0.6" d="M68.4868 99.9765C75.5214 101.26 80.9051 101.833 80.6618 102.798C80.4361 103.725 74.6527 104.786 67.5914 103.638C59.9588 102.44 53.9053 99.1965 54.1673 98.1323C54.4293 97.0221 60.8824 98.6321 68.4868 99.9765Z" fill="url(#paint15_linear_0_831)"/>
<path d="M3.19452 65.4081C-0.197117 65.8038 -1.10576 68.8692 1.52966 71.0239L33.2621 96.9666C36.3368 93.9717 41.6783 87.9408 43.9763 78.9885C45.924 71.4013 44.9465 64.6511 44.0298 60.6446C31.7753 62.0741 18.2347 63.6538 3.19452 65.4081Z" fill="url(#paint16_linear_0_831)"/>
<path opacity="0.15" d="M3.19475 65.408C0.148976 65.7635 -0.89596 68.2773 0.845843 70.3531C9.35334 69.2231 17.3743 68.1578 24.9493 67.1517C31.7227 66.2523 38.2997 71.2094 38.0989 76.6773C38.0125 79.0293 37.6937 81.5654 37.0144 84.2213C35.8376 88.8237 33.8624 92.6641 31.7777 95.7522L33.2626 96.9662C36.3374 93.9712 41.6789 87.9404 43.9769 78.988C45.9246 71.4009 44.9471 64.6507 44.0304 60.6441C31.7755 62.074 18.2349 63.6537 3.19475 65.408Z" fill="#002442"/>
<path opacity="0.15" d="M44.0298 60.6449C31.7753 62.0744 18.2343 63.6537 3.19417 65.4084C1.48315 65.6079 0.403774 66.4887 0.0949097 67.5905C0.132281 67.5854 0.169653 67.5803 0.20739 67.5759C11.2049 66.2932 21.4007 65.1037 30.878 63.9982C37.0824 63.2745 42.4415 68.3295 42.037 74.5452C41.9007 76.6367 41.5794 78.8583 40.9895 81.1566C39.229 88.0149 35.6817 93.1587 32.7359 96.5365L33.2621 96.9665C36.3368 93.9716 41.6783 87.9407 43.9763 78.9884C45.924 71.4016 44.9465 64.6514 44.0298 60.6449Z" fill="#002442"/>
<path opacity="0.6" d="M25.6233 78.0549C30.1972 80.9794 32.5637 84.5753 31.0744 86.2116C29.5725 87.8618 24.6289 87.0015 19.8571 84.1665C14.865 81.2008 12.0417 77.2709 13.7494 75.5291C15.4417 73.8032 20.8415 74.9975 25.6233 78.0549Z" fill="url(#paint17_linear_0_831)"/>
<path opacity="0.6" d="M22.6474 79.5714C25.2686 81.2052 26.6532 83.2477 25.794 84.1731C24.9308 85.1029 22.1004 84.587 19.4167 82.9814C16.6647 81.3349 15.1373 79.1886 16.0646 78.2303C16.9875 77.2768 19.9604 77.8964 22.6474 79.5714Z" fill="url(#paint18_linear_0_831)"/>
<path d="M86.0367 80.8621L101.559 73.6367L118.535 84.3485L107.127 83.4417L102.743 86.882L86.0367 80.8621Z" fill="url(#paint19_linear_0_831)"/>
<path opacity="0.15" d="M106.004 79.6836L101.537 83.0943L90.3887 78.8364L86.0367 80.8621L102.743 86.882L107.127 83.4417L118.535 84.3485L112.13 80.3072L106.004 79.6836Z" fill="#002442"/>
<path opacity="0.15" d="M106.645 81.7678L102.225 85.1946L88.0211 79.9386L86.0367 80.8621L102.743 86.882L107.127 83.4417L118.535 84.3485L115.733 82.5807L106.645 81.7678Z" fill="#002442"/>
<path d="M79.8862 101.609L88.9737 116.089L109.062 116.302L98.9933 110.878L97.1896 105.614L79.8862 101.609Z" fill="url(#paint20_linear_0_831)"/>
<path opacity="0.15" d="M96.0018 113.424L94.1127 108.14L82.4341 105.669L79.8862 101.609L97.1896 105.614L98.9933 110.878L109.062 116.302L101.483 116.221L96.0018 113.424Z" fill="#002442"/>
<path opacity="0.15" d="M97.6761 112.022L95.835 106.75L81.0477 103.461L79.8862 101.609L97.1896 105.614L98.9933 110.878L109.062 116.302L105.747 116.266L97.6761 112.022Z" fill="#002442"/>
<path d="M45.0246 80.6356C44.8835 83.1732 35.9506 100.254 32.289 97.9146C31.6181 97.4765 31.5118 96.6929 32.0537 96.1679C40.2106 89.5117 46.3395 72.8045 42.5778 60.6672C42.4093 59.935 42.9255 59.333 43.7286 59.3249C44.5263 59.3165 45.3012 59.8981 45.4646 60.6219C46.075 63.3282 46.4274 66.0309 46.5172 68.6649C46.6568 72.7975 46.156 76.8169 45.0246 80.6356Z" fill="url(#paint21_linear_0_831)"/>
<path opacity="0.3" d="M46.2179 66.4996C46.3604 70.6615 45.8585 74.7035 44.7227 78.5376C44.586 81.0145 36.1466 97.1759 32.2761 95.9835C32.2021 96.0459 32.1281 96.1077 32.0537 96.1683C31.5119 96.6929 31.6185 97.4769 32.289 97.915C35.9506 100.255 44.8835 83.1736 45.0246 80.636C46.156 76.8172 46.6568 72.7979 46.5165 68.6653C46.456 66.8946 46.2765 65.0935 45.9808 63.2822C46.1017 64.3625 46.1812 65.4365 46.2179 66.4996Z" fill="#BC4C00"/>
<path d="M60.8462 35.7828C59.7672 35.4058 58.7003 34.9685 57.7374 34.3482C53.2942 31.5435 50.8959 26.2598 50.2034 21.1726L41.7274 22.6617C43.0006 27.7814 45.6108 32.6472 49.4461 36.3074C51.3315 38.0771 53.547 39.5176 55.9685 40.4426C57.197 40.8799 58.4768 41.3449 59.7826 41.4253C61.0888 41.3782 62.0289 40.2018 62.1505 38.9502C62.27 37.7728 61.9296 36.3783 60.8462 35.7828Z" fill="url(#paint22_linear_0_831)"/>
<path opacity="0.3" d="M51.4422 32.85C51.1978 32.0923 50.0272 32.2808 49.3827 32.2092C48.6305 32.1339 47.4094 32.3655 47.683 33.3731C48.0813 34.2649 49.2878 34.3953 50.1426 34.1403C50.687 33.9712 51.5708 33.5664 51.4422 32.85Z" fill="#FE1157"/>
<path opacity="0.3" d="M54.356 32.2804C53.9494 32.3254 53.4657 32.9526 54.0541 33.0871C54.5821 33.1287 55.3911 32.0086 54.356 32.2804Z" fill="#FE1157"/>
<path opacity="0.3" d="M56.5749 35.0953C56.2235 32.9325 52.9513 35.2436 53.2613 37.2715C53.3873 38.4954 54.8235 38.6821 55.5424 37.7888C56.1598 37.0991 56.6163 36.0035 56.5749 35.0953Z" fill="#FE1157"/>
<path opacity="0.3" d="M47.9091 27.6583C47.1159 27.2301 46.8895 28.6962 47.5317 28.8416C48.4081 28.8734 48.795 28.1223 47.9091 27.6583Z" fill="#FE1157"/>
<path opacity="0.15" d="M60.8462 35.7828C59.7672 35.4058 58.7003 34.9685 57.7374 34.3482C53.2942 31.5435 50.8959 26.2598 50.2034 21.1726L41.7274 22.6617C41.9366 23.5034 42.1828 24.3382 42.4639 25.1616C44.7721 24.9158 47.1195 24.7861 47.7856 26.9481C49.1042 31.2268 53.0836 34.3697 56.7222 36.9464C58.4958 38.2024 58.3145 39.7536 57.663 41.014C58.3588 41.2211 59.0667 41.3807 59.7822 41.4249C61.0884 41.3778 62.0285 40.2015 62.1502 38.9498C62.27 37.7728 61.9296 36.3783 60.8462 35.7828Z" fill="#FF0037"/>
<path opacity="0.15" d="M60.8462 35.7828C59.7672 35.4058 58.7003 34.9685 57.7374 34.3482C53.2942 31.5435 50.8959 26.2598 50.2034 21.1726L46.1786 21.8799C47.5255 23.0833 48.5155 24.4975 49.1596 25.8126C50.561 28.6746 52.8601 32.9154 58.3584 36.3947C60.6718 37.8586 61.346 39.404 61.3504 40.7034C61.7981 40.2406 62.0864 39.6063 62.1502 38.9509C62.27 37.7728 61.9296 36.3783 60.8462 35.7828Z" fill="#FF0037"/>
<path d="M86.324 9.24244C81.3957 7.94918 76.1659 10.2277 76.1659 10.2277C71.0057 12.4628 65.8833 20.6933 60.7795 30.8282C55.6757 40.9632 50.0227 48.467 53.9266 59.0392C57.8304 69.6115 69.2166 82.5737 90.7162 72.1447C104.774 65.3255 104.987 56.962 106.12 44.5712C107.254 32.1803 112.588 21.5474 96.7063 12.6754C96.7059 12.6754 92.8427 10.8678 86.324 9.24244Z" fill="url(#paint23_linear_0_831)"/>
<path d="M90.7158 72.1447C91.7912 71.623 92.7856 71.0922 93.7056 70.5511C96.9763 66.7652 98.303 61.8088 99.2343 58.3301C100.443 53.8154 102.354 46.6776 99.0999 41.9079C97.9095 40.1627 96.3186 39.3966 93.1369 37.8648C88.3178 35.5443 86.1836 35.8541 78.813 34.0077C70.4928 31.9235 69.7087 30.651 66.8175 31.5077C62.1677 32.8854 59.4195 37.5919 58.0906 39.8672C55.3668 44.5313 53.2242 51.451 53.6613 58.2816C53.7445 58.5325 53.8328 58.785 53.9266 59.0396C57.8301 69.6115 69.2166 82.5741 90.7158 72.1447Z" fill="url(#paint24_linear_0_831)"/>
<path opacity="0.3" d="M64.6917 44.7841C64.5891 44.859 68.4849 49.5392 75.3419 51.4295C81.9357 53.3299 87.4898 51.5672 87.448 51.4485C87.4363 51.3571 86.2232 51.6505 83.9934 51.7403C81.736 51.8189 78.4221 51.6877 74.5472 50.4263C71.1105 49.312 68.656 47.7751 67.0601 46.6301C65.4886 45.4889 64.743 44.7231 64.6917 44.7841Z" fill="#FE1157"/>
<path opacity="0.3" d="M61.0784 50.1797C60.9513 50.267 65.2091 56.2693 73.3095 58.4799C81.0912 60.7183 87.6162 58.0777 87.5616 57.9352C87.5466 57.8201 86.1386 58.2808 83.5255 58.5194C80.8707 58.7452 76.9503 58.7408 72.3936 57.2327C68.3553 55.9025 65.5355 53.9637 63.7267 52.5159C61.953 51.0769 61.1426 50.103 61.0784 50.1797Z" fill="#FE1157"/>
<path opacity="0.3" d="M56.9643 56.3318C56.9211 56.3891 57.9268 58.2527 60.1987 60.4823C62.5253 62.7747 66.1899 65.4526 70.9302 66.7338C80.1053 69.3671 87.7562 65.4986 87.6862 65.3284C87.6671 65.183 86.0393 65.8775 82.984 66.3356C79.8664 66.7809 75.2316 66.9804 69.8802 65.176C65.1413 63.5872 61.9219 61.1311 59.8906 59.2942C57.9085 57.476 57.0453 56.2353 56.9643 56.3318Z" fill="#FE1157"/>
<path opacity="0.15" d="M106.12 44.5712C107.254 32.1803 112.588 21.5474 96.7059 12.6754C96.7059 12.6754 93.9979 11.4081 89.2913 10.0421C83.7867 10.4857 82.2215 13.9533 82.2215 13.9533C84.3418 13.8839 89.0008 14.045 93.1813 17.0864C99.9843 22.0355 100.35 30.8501 100.375 32.6476C100.491 40.7052 95.7222 42.7259 95.868 51.3929C95.8848 52.3979 95.994 55.0436 94.7091 57.9754C94.2943 58.922 93.2611 61.2016 90.9053 62.7988C89.0697 64.0431 87.233 64.3296 85.9429 64.4867C79.293 65.297 72.8376 66.0835 64.6852 63.2153C61.8416 62.215 57.6546 60.3701 53.2495 56.8834C53.4316 57.5885 53.6562 58.3064 53.9266 59.0392C57.8304 69.6115 69.2166 82.5737 90.7162 72.1447C104.773 65.3255 104.986 56.9624 106.12 44.5712Z" fill="#FF0037"/>
<path opacity="0.3" d="M106.12 44.5712C107.254 32.1803 112.588 21.5474 96.7059 12.6754C96.7059 12.6754 93.662 11.251 88.4193 9.79446C84.141 10.7122 82.2215 13.9534 82.2215 13.9534C83.3676 13.6184 88.9799 12.1066 94.7476 15.2119C99.7037 17.8803 102.247 22.5974 103.042 26.5071C103.641 29.4546 103.22 31.8143 102.779 34.285C101.818 39.6725 100.165 40.3246 98.7712 45.2437C96.7506 52.3735 99.264 54.381 97.0089 59.3008C95.0971 63.4718 91.619 65.6429 89.5163 66.987C77.819 74.4631 64.1642 69.6188 58.0953 66.7466C63.9128 74.5047 74.4032 80.0581 90.7158 72.1451C104.773 65.3255 104.986 56.9624 106.12 44.5712Z" fill="#FF0037"/>
<path opacity="0.3" d="M107.538 25.535C107.352 36.3495 105.117 41.1985 102.926 43.583C102.263 44.3052 99.2864 47.3871 99.8246 50.141C99.9078 50.5673 100.157 51.3999 100.212 52.6654C100.212 52.6654 100.275 54.0986 99.9429 55.6976C99.4648 58.0017 97.2104 63.2362 94.974 65.9473C90.9819 70.7864 80.845 75.1009 67.9882 74.5226C73.7558 76.7938 81.2572 76.7336 90.7159 72.1451C104.774 65.3258 104.986 56.9624 106.12 44.5715C106.75 37.6822 108.679 31.3368 107.538 25.535Z" fill="#770028"/>
<path opacity="0.3" d="M98.5016 13.7426C97.9355 13.3842 97.3376 13.0284 96.7059 12.6754C96.7059 12.6754 93.3194 11.0907 87.5382 9.55518C85.9719 10.2029 83.6772 11.5137 82.2216 13.9534C82.2216 13.9534 87.5301 9.31077 98.5016 13.7426Z" fill="#770028"/>
<g opacity="0.3">
<path d="M99.7774 35.652C99.8356 36.1142 100.025 36.5927 100.412 36.7728C100.883 36.9917 101.443 36.6932 101.882 36.3538C102.32 36.0159 102.733 35.6195 103.015 35.1219C103.631 34.0351 103.236 32.0254 101.844 32.1869C100.442 32.3498 99.6107 34.3306 99.7774 35.652Z" fill="#FE1157"/>
<path d="M104.889 33.1258C105.347 33.5591 106.102 32.7524 105.59 32.3432C105.145 31.9874 104.406 32.6691 104.889 33.1258Z" fill="#FE1157"/>
<path d="M98.1719 27.0745C97.9509 27.2447 97.8095 27.5195 97.7432 27.8019C97.6769 28.0839 97.6783 28.3754 97.693 28.6611C97.7172 29.1346 97.7754 29.604 97.8674 30.0632C97.952 30.4859 98.1088 30.9528 98.4826 31.0873C98.7511 31.1837 99.068 31.0679 99.2893 30.852C99.5106 30.6361 99.648 30.3347 99.7352 30.0293C99.9389 29.3176 99.88 28.5449 99.6044 27.8979C99.3641 27.3313 98.8401 26.5594 98.1719 27.0745Z" fill="#FE1157"/>
<path d="M97.5684 23.7803C97.6025 23.9761 97.6757 24.1888 97.8454 24.2563C98.0099 24.3221 98.2096 24.2169 98.3198 24.0558C98.5803 23.6762 98.3818 23.1611 98.0081 23.0285C97.5691 22.8725 97.5105 23.4446 97.5684 23.7803Z" fill="#FE1157"/>
<path d="M101.159 19.6364C100.583 19.807 100.118 20.382 99.9899 21.0181C99.862 21.6541 100.055 22.3245 100.45 22.776C100.844 23.2276 101.423 23.4654 102.011 23.4738C102.46 23.4804 102.93 23.3514 103.294 23.0387C103.722 22.6715 103.967 22.0589 103.912 21.4879C103.796 20.2574 102.226 19.32 101.159 19.6364Z" fill="#FE1157"/>
<path d="M96.6026 15.8257C96.4714 16.1607 96.5396 16.5947 96.8176 16.7634C96.9789 16.8614 97.1822 16.8577 97.368 16.8058C97.6526 16.7262 97.9208 16.5311 98.0758 16.2531C98.2308 15.9751 98.2597 15.6149 98.1227 15.3445C97.7325 14.5729 96.847 15.2017 96.6026 15.8257Z" fill="#FE1157"/>
<path d="M101.733 54.7908C101.787 55.0477 101.963 55.2749 102.199 55.3271C102.404 55.3724 102.627 55.2829 102.796 55.1328C103.091 54.8709 103.235 54.42 103.147 54.0339C103.063 53.6642 102.665 53.1827 102.27 53.3847C101.866 53.5915 101.645 54.37 101.733 54.7908Z" fill="#FE1157"/>
<path d="M98.2107 64.495C98.1502 64.6814 98.0923 64.8735 98.0953 65.0675C98.0982 65.2615 98.1729 65.4599 98.325 65.5505C98.5675 65.6952 98.8786 65.5187 99.1138 65.3306C100.008 64.6152 100.731 63.6373 101.18 62.538C101.454 61.8672 101.731 60.3449 100.765 60.2043C100.335 60.1418 100.066 60.6339 99.8513 60.974C99.5297 61.4836 99.2398 62.0178 98.9793 62.565C98.6822 63.1897 98.4246 63.8353 98.2107 64.495Z" fill="#FE1157"/>
<path d="M54.8975 44.8411C55.0078 44.9328 55.1811 44.8897 55.2925 44.7849C55.5325 44.5591 55.8659 43.5855 55.2837 43.7265C54.9397 43.8102 54.5839 44.5806 54.8975 44.8411Z" fill="#FE1157"/>
<path d="M56.4811 39.9771C56.4309 40.2705 56.432 40.6256 56.6529 40.7809C56.7954 40.881 56.9925 40.8609 57.1516 40.7728C57.3106 40.6851 57.4381 40.5394 57.5539 40.3896C57.8675 39.9844 58.1228 39.5267 58.3082 39.0412C58.4442 38.6853 58.708 38.0566 58.5453 37.6924C58.165 36.8408 57.2783 38.019 57.0515 38.4102C56.7727 38.8914 56.5752 39.4262 56.4811 39.9771Z" fill="#FE1157"/>
<path d="M62.1798 30.9126C62.1692 31.0427 62.182 31.1888 62.2722 31.2681C62.3924 31.374 62.5774 31.3064 62.7232 31.2279C62.9163 31.1241 63.1116 31.0003 63.2354 30.8067C63.3596 30.613 63.39 30.3325 63.253 30.1673C63.1116 29.9967 62.7485 29.9595 62.5503 30.0716C62.311 30.2068 62.2007 30.655 62.1798 30.9126Z" fill="#FE1157"/>
<path d="M64.7643 30.2064C64.6423 30.5886 64.6097 31.0726 64.8915 31.3046C65.0835 31.4624 65.3561 31.4453 65.6015 31.3963C66.3486 31.248 67.0678 30.8658 67.6511 30.3084C67.9805 29.9934 68.2736 29.6102 68.4051 29.1605C68.5367 28.7108 68.4799 28.1869 68.1857 27.8712C67.7046 27.3554 67.2353 27.7839 66.745 28.04C66.1691 28.3411 65.6744 28.6487 65.2667 29.2138C65.0509 29.5138 64.8783 29.8499 64.7643 30.2064Z" fill="#FE1157"/>
<path d="M70.0348 27.115C70.0187 27.3028 70.0535 27.5224 70.2052 27.5994C70.351 27.6732 70.5276 27.5797 70.6723 27.4844C70.8342 27.3781 70.9966 27.2641 71.1215 27.1081C71.2464 26.9521 71.3307 26.7457 71.3072 26.5477C71.2699 26.2338 70.8815 25.897 70.5785 26.0358C70.2539 26.1842 70.0634 26.7822 70.0348 27.115Z" fill="#FE1157"/>
<path d="M93.736 34.4355C93.7199 34.6233 93.7547 34.8428 93.9064 34.9199C94.0522 34.9941 94.2288 34.9002 94.3735 34.8048C94.5355 34.6985 94.6978 34.5845 94.8224 34.4285C94.9473 34.2726 95.0316 34.0661 95.0081 33.8681C94.9708 33.5543 94.5824 33.2175 94.2794 33.3563C93.9551 33.5046 93.7646 34.1027 93.736 34.4355Z" fill="#FE1157"/>
<path d="M66.9458 23.1446C66.7355 23.4438 66.623 23.8205 66.6351 24.1858C66.6428 24.4156 66.7091 24.6575 66.8806 24.7806C67.0088 24.8726 67.1785 24.8832 67.3334 24.8412C67.4884 24.7992 67.6313 24.709 67.7654 24.6096C67.9995 24.4361 68.2186 24.2253 68.3626 23.9597C68.5062 23.6937 68.5663 23.3664 68.4751 23.0884C68.2043 22.2635 67.3411 22.5824 66.9458 23.1446Z" fill="#FE1157"/>
<path d="M70.1462 17.3458C69.9597 17.7476 69.8099 18.2291 69.9839 18.6146C70.0868 18.8425 70.2939 18.9985 70.5221 19.0584C70.7504 19.1187 70.9973 19.0895 71.2281 19.0102C71.7623 18.8272 72.2101 18.3866 72.5369 17.8806C72.8637 17.3746 73.0843 16.8018 73.3023 16.2348C73.4045 15.9681 73.5071 15.7018 73.6093 15.4351C73.761 15.0398 73.8866 14.5927 73.5683 14.284C73.3143 14.0377 73.0542 14.1532 72.7813 14.3417C72.0881 14.8206 71.4447 15.3661 70.9182 16.0624C70.6181 16.4588 70.358 16.8898 70.1462 17.3458Z" fill="#FE1157"/>
<path d="M77.7722 10.8521C77.7319 10.9503 77.7026 11.0559 77.704 11.1611C77.7055 11.2664 77.7407 11.3719 77.8128 11.437C77.9451 11.5561 78.1496 11.5086 78.317 11.4355C78.5028 11.3544 78.6856 11.2455 78.8189 11.0797C78.9523 10.9138 79.0296 10.6829 78.9802 10.4783C78.7867 9.67535 77.9484 10.4199 77.7722 10.8521Z" fill="#FE1157"/>
</g>
<path d="M60.748 43.6702C60.0116 42.9626 59.5466 41.0406 59.8885 39.3228C61.2529 32.4021 64.9893 23.67 72.9622 14.6635C75.7633 11.5199 79.2666 9.99757 80.1702 11.1188C81.0825 12.2447 79.0388 15.525 76.2114 18.555C68.0985 27.1888 64.1646 35.4631 62.6276 42.042C62.2498 43.6735 61.4888 44.3793 60.748 43.6702Z" fill="url(#paint25_linear_0_831)"/>
<path d="M60.9612 46.7796C60.3438 48.0283 58.9464 48.5525 57.84 47.9508C56.7335 47.3487 56.337 45.8483 56.9548 44.5997C57.5721 43.351 58.9695 42.8267 60.076 43.4284C61.1825 44.0305 61.5786 45.5305 60.9612 46.7796Z" fill="url(#paint26_linear_0_831)"/>
<path d="M102.246 8.51912C97.1808 8.64479 95.4609 11.9927 95.3239 12.2769C95.3188 12.2875 95.3235 12.2999 95.3342 12.3046L97.8465 13.4233C97.8578 13.4284 97.871 13.4222 97.8747 13.4105C99.038 9.67246 101.537 8.7511 102.252 8.5604C102.276 8.55382 102.271 8.51838 102.246 8.51912Z" fill="url(#paint27_linear_0_831)"/>
<path opacity="0.3" d="M95.5236 12.389L97.0595 13.0729C97.2555 12.4628 97.8659 10.9328 99.2494 10.1266C99.2494 10.1262 97.3449 10.253 95.5236 12.389Z" fill="#380000"/>
<path d="M92.0832 1.7346C92.0616 1.72766 92.0466 1.75505 92.0634 1.77003C95.5679 4.90747 93.6169 8.21296 93.4344 8.5034C93.4275 8.51436 93.4125 8.51619 93.4029 8.50778C86.2679 2.17664 80.5142 5.57968 79.7268 6.0999C79.7074 6.11269 79.7206 6.14265 79.7433 6.13717C85.1625 4.88409 87.6547 8.5023 87.8903 8.8669C87.8987 8.88005 87.8895 8.89759 87.8738 8.89868C83.224 9.21214 82.1237 12.9213 81.9863 13.4697C81.9812 13.4898 82.0057 13.504 82.0208 13.4898C86.6182 9.17341 93.5165 11.5517 93.5821 11.5743C93.5825 11.5743 93.5828 11.5747 93.5832 11.5747L96.2384 12.7076C96.249 12.7123 96.2615 12.7069 96.2659 12.6963C99.7092 4.44679 92.9541 2.01042 92.0832 1.7346Z" fill="url(#paint28_linear_0_831)"/>
<path opacity="0.3" d="M95.0209 5.38458C95.6643 8.08911 93.9705 10.2456 93.9705 10.2456C92.0429 7.80781 86.9593 7.01797 86.9593 7.01797C90.0905 8.13222 91.083 10.1397 91.083 10.1397C85.308 8.96736 82.7697 12.2853 82.0779 13.4368C86.6754 9.19313 93.5169 11.5517 93.5818 11.574C93.5821 11.574 93.5825 11.5743 93.5829 11.5743L95.6899 12.4734C97.0917 8.03212 95.0209 5.38458 95.0209 5.38458Z" fill="#380000"/>
<path opacity="0.15" d="M79.9606 48.5964C78.4807 48.7681 76.0358 48.5587 73.8837 47.0035C72.2053 45.7906 71.4505 44.2983 71.2761 43.9366C69.9263 41.136 70.6778 38.2707 71.2666 36.7699C71.4838 36.2161 72.1225 35.956 72.6651 36.2026C74.5505 37.0593 76.7477 37.8586 79.2271 38.4183C82.0684 39.0595 84.6639 39.2465 86.9032 39.207C87.5957 39.195 88.1057 39.8478 87.9265 40.5149C86.7222 44.9975 83.4958 48.1865 79.9606 48.5964Z" fill="#FE1157"/>
<path d="M79.4665 47.4616C77.9866 47.6334 75.5418 47.424 73.3896 45.8688C71.7112 44.6559 70.9564 43.1636 70.782 42.8019C69.4323 40.0013 70.1837 37.136 70.7725 35.6352C70.9898 35.0814 71.6284 34.8213 72.171 35.0679C74.0564 35.9246 76.2536 36.7239 78.733 37.2836C81.5743 37.9248 84.1698 38.1118 86.4091 38.0723C87.1016 38.0603 87.6116 38.7131 87.4325 39.3802C86.2282 43.8624 83.0021 47.0514 79.4665 47.4616Z" fill="#841313"/>
<path d="M86.7946 41.2255C84.9736 41.1616 82.9644 40.9369 80.8137 40.4514C79.0404 40.051 77.4114 39.5279 75.9375 38.9492C74.3173 38.3128 72.5169 39.3193 72.2347 41.0326C72.0343 42.2506 72.0244 43.6919 72.5275 45.1535C71.4441 44.1273 70.9231 43.0946 70.782 42.8023C69.4323 40.0013 70.1837 37.1364 70.7725 35.6356C70.9898 35.0822 71.6284 34.8217 72.171 35.0683C74.0561 35.925 76.2533 36.7247 78.733 37.284C81.5747 37.9255 84.1698 38.1122 86.4091 38.0728C87.1012 38.0607 87.6116 38.7132 87.4328 39.3799C87.2599 40.0229 87.0456 40.6395 86.7946 41.2255Z" fill="url(#paint29_linear_0_831)"/>
<path d="M87.4327 39.3861C85.0819 39.4639 82.3102 39.2999 79.2534 38.6098C77.4864 38.2112 75.8625 37.6902 74.3929 37.1141C72.7677 36.4766 70.9548 37.4805 70.673 39.199C70.4913 40.3085 70.4678 41.6033 70.8463 42.929C70.8207 42.8779 70.7994 42.8355 70.7837 42.8023C69.4339 40.0013 70.1854 37.1364 70.7741 35.6356C70.9914 35.0821 71.63 34.8217 72.1726 35.0683C74.0577 35.925 76.2549 36.7247 78.7346 37.284C81.5763 37.9255 84.1714 38.1122 86.4108 38.0727C87.0996 38.0607 87.6144 38.7091 87.4359 39.3726L87.4327 39.3861Z" fill="#770028"/>
<path d="M83.608 43.6674C82.3659 42.8593 80.933 42.7197 79.9254 43.2038C79.356 42.2437 78.0858 41.5682 76.603 41.5539C75.0748 41.5393 73.2059 42.3748 71.4131 43.8654C71.8349 44.4641 72.4746 45.2079 73.3894 45.8692C75.5416 47.4244 77.9865 47.6337 79.4663 47.462C81.3701 47.241 83.1841 46.2141 84.6408 44.6139C84.3766 44.2665 84.0359 43.9457 83.608 43.6674Z" fill="#E23333"/>
<path opacity="0.3" d="M84.6478 44.6154C83.191 46.2159 81.3767 47.2428 79.4733 47.4638C78.1565 47.6162 76.0769 47.4675 74.1185 46.3383C75.7662 47.0251 77.3959 47.1076 78.4939 46.9801C80.0166 46.8033 81.4814 46.1114 82.7524 45.0227C83.3317 44.5266 83.2866 43.6122 82.6487 43.1943C82.6444 43.1913 82.6403 43.1888 82.6359 43.1859C82.6293 43.1811 82.622 43.1767 82.615 43.1727C82.9543 43.2936 83.291 43.4587 83.6149 43.6692C84.0425 43.9476 84.3832 44.2687 84.6478 44.6154Z" fill="#841313"/>
<path opacity="0.3" d="M84.6412 44.6136C83.1844 46.2141 81.3701 47.241 79.4667 47.462C78.1499 47.6144 76.0703 47.4657 74.1119 46.3364C74.4124 46.4618 74.7128 46.567 75.0092 46.6546L75.0103 46.655C76.6272 47.3082 78.218 47.3857 79.297 47.2607C81.2004 47.0397 83.0148 46.0128 84.4715 44.4123C84.4616 44.3991 84.4514 44.3863 84.4411 44.3735C84.5122 44.4517 84.5785 44.5317 84.6412 44.6136Z" fill="#841313"/>
<path opacity="0.3" d="M76.2535 45.1809L78.2257 44.207C78.2257 44.207 79.3604 43.488 80.9696 42.9345C80.5926 42.963 80.2383 43.0533 79.925 43.2038C79.6737 42.78 79.2853 42.4114 78.8024 42.1308C78.7314 42.6514 78.5013 43.3002 77.8835 43.8939C77.1815 44.569 76.2535 45.1809 76.2535 45.1809Z" fill="#841313"/>
<path d="M82.8407 46.1764C82.1417 46.6448 81.3983 46.9992 80.6307 47.2238L82.5689 43.663C82.622 43.5647 82.7722 43.6005 82.7748 43.7127L82.8407 46.1764Z" fill="url(#paint30_linear_0_831)"/>
<path d="M71.7934 44.3655C71.1984 43.6407 70.8863 43.0182 70.7818 42.8019C70.6979 42.6276 70.6221 42.453 70.5536 42.2787L71.4875 40.5631C71.5406 40.4649 71.6905 40.5007 71.6934 40.6125L71.7934 44.3655Z" fill="url(#paint31_linear_0_831)"/>
<path opacity="0.15" d="M79.4641 47.4609C77.9843 47.633 75.5394 47.4233 73.3872 45.8685C71.7085 44.6556 70.9537 43.1628 70.7797 42.8019C69.7428 40.6508 69.9458 38.4618 70.362 36.8825C70.1051 38.3463 70.1161 40.1492 70.9724 41.9262C71.1468 42.2879 71.9015 43.7802 73.58 44.9928C75.7321 46.5483 78.177 46.7577 79.6569 46.586C83.0467 46.1925 86.1529 43.2447 87.4642 39.0514C87.4708 39.1588 87.4602 39.2695 87.4305 39.3806C86.2258 43.8621 82.9998 47.051 79.4641 47.4609Z" fill="#FE1157"/>
<path opacity="0.15" d="M79.4641 47.4609C77.9843 47.633 75.5394 47.4233 73.3872 45.8685C71.7085 44.6556 70.9537 43.1628 70.7797 42.8019C69.7428 40.6508 69.9458 38.4618 70.362 36.8825C70.3345 37.0385 70.3103 37.1981 70.2902 37.3611C70.0385 38.8194 70.0542 40.611 70.905 42.377C71.079 42.738 71.8334 44.2307 73.5125 45.4436C75.6647 46.9984 78.1096 47.2081 79.5894 47.036C82.9814 46.6426 86.0884 43.6922 87.3982 39.496C86.1701 43.9169 82.969 47.0547 79.4641 47.4609Z" fill="#FE1157"/>
<path d="M77.1229 15.5308L76.4451 12.3324C76.4012 12.1256 76.1978 11.9934 75.9904 12.0372C75.7831 12.081 75.6504 12.2838 75.6944 12.4906L76.3722 15.689C76.4162 15.8958 76.6195 16.028 76.8269 15.9842C77.0343 15.9404 77.1665 15.7372 77.1229 15.5308Z" fill="#770028"/>
<path d="M83.4219 14.2135C83.2713 14.0648 83.0284 14.0662 82.8793 14.2168L80.5747 16.5417C80.4256 16.6919 80.427 16.9341 80.578 17.0828C80.7286 17.2314 80.9715 17.23 81.1206 17.0795L83.4252 14.7545C83.5743 14.604 83.5728 14.3618 83.4219 14.2135Z" fill="#770028"/>
<path d="M79.9529 12.2878C79.7496 12.2283 79.5363 12.3444 79.4766 12.5472L78.5529 15.6835C78.4932 15.8863 78.6097 16.0989 78.8131 16.1585C79.0164 16.218 79.2297 16.1018 79.2894 15.8991L80.2134 12.7627C80.2728 12.56 80.1562 12.3474 79.9529 12.2878Z" fill="#770028"/>
<path opacity="0.15" d="M74.4861 31.4095C72.7388 30.8976 71.3648 29.539 70.617 27.5834C69.8886 25.6789 69.8425 23.4248 70.4869 21.2369C71.1314 19.0489 72.3925 17.1781 74.038 15.9685C75.7277 14.7267 77.6201 14.3245 79.3674 14.8363C81.1147 15.3482 82.4887 16.7068 83.2365 18.6624C83.9648 20.5669 84.011 22.8209 83.3665 25.0089C82.7221 27.1969 81.461 29.0677 79.8155 30.2773C78.1257 31.5191 76.2333 31.9213 74.4861 31.4095Z" fill="#FE1157"/>
<path d="M74.6825 30.1012C72.9352 29.5894 71.5612 28.2307 70.8134 26.2751C70.085 24.3707 70.0389 22.1166 70.6834 19.9287C71.3278 17.7407 72.5889 15.8699 74.2344 14.6603C75.9241 13.4185 77.8165 13.0163 79.5638 13.5281C81.3111 14.0399 82.6851 15.3986 83.4329 17.3542C84.1613 19.2586 84.2074 21.5127 83.5629 23.7007C82.9185 25.8886 81.6574 27.7595 80.0119 28.9691C78.3225 30.2108 76.4298 30.6127 74.6825 30.1012Z" fill="url(#paint32_linear_0_831)"/>
<path d="M83.0892 23.4296C82.1966 26.46 80.1016 28.6987 77.7956 29.4166C79.7342 28.4565 81.4155 26.4224 82.1904 23.7913C83.4552 19.4969 81.827 15.2382 78.5537 14.28C77.5901 13.9976 76.5909 14.033 75.6292 14.3326C76.8551 13.7254 78.184 13.5471 79.4524 13.9183C82.7257 14.8769 84.3539 19.1352 83.0892 23.4296Z" fill="white"/>
<path d="M78.7684 29.0425C77.4542 29.787 76.0003 30.0351 74.6183 29.6303C71.345 28.6717 69.7164 24.4134 70.9816 20.119C71.8067 17.3177 73.6595 15.1933 75.7563 14.3209C73.9577 15.3405 72.4211 17.2906 71.6905 19.7716C70.4254 24.066 72.054 28.3246 75.3277 29.2832C76.4653 29.6161 77.6517 29.5068 78.7684 29.0425Z" fill="#9D9B9C"/>
<path d="M78.9534 15.601C80.2636 15.9846 81.2939 17.0035 81.8545 18.4699C82.4007 19.898 82.4352 21.588 81.9519 23.2287C81.4686 24.8694 80.523 26.2722 79.289 27.179C78.022 28.1102 76.6027 28.4116 75.2928 28.028C73.9826 27.6444 72.9523 26.6255 72.3918 25.1591C71.8455 23.731 71.8111 22.041 72.2943 20.4003C72.7776 18.7596 73.7232 17.3567 74.9572 16.45C76.2242 15.5188 77.6432 15.2174 78.9534 15.601Z" fill="#770028"/>
<path d="M80.3003 17.337C80.804 17.4846 81.2005 17.8762 81.4159 18.4403C81.6258 18.9894 81.6394 19.6393 81.4533 20.2702C81.2675 20.9011 80.9037 21.4407 80.4292 21.7893C79.9419 22.1473 79.3964 22.2634 78.8922 22.1159C78.3885 21.9683 77.992 21.5766 77.7766 21.0126C77.5666 20.4635 77.5531 19.8136 77.7392 19.1826C77.925 18.5517 78.2888 18.0121 78.7633 17.6636C79.2509 17.3052 79.7965 17.1894 80.3003 17.337Z" fill="white"/>
<path opacity="0.2" d="M77.647 24.7277C78.2496 23.6215 77.8387 22.2376 76.7292 21.6368C75.6198 21.036 74.2319 21.4457 73.6293 22.5519C73.0268 23.6582 73.4377 25.042 74.5471 25.6429C75.6566 26.2437 77.0444 25.834 77.647 24.7277Z" fill="white"/>
<path opacity="0.2" d="M75.4994 26.1628C76.0605 25.6034 76.0604 24.6964 75.4994 24.137C74.9384 23.5776 74.0288 23.5776 73.4678 24.137C72.9068 24.6964 72.9068 25.6034 73.4678 26.1628C74.0288 26.7222 74.9384 26.7222 75.4994 26.1628Z" fill="white"/>
<path d="M77.2951 23.0539C77.4163 22.5914 77.1387 22.1185 76.6749 21.9976C76.2111 21.8766 75.7368 22.1535 75.6155 22.6159C75.4943 23.0784 75.7719 23.5513 76.2357 23.6722C76.6995 23.7932 77.1738 23.5163 77.2951 23.0539Z" fill="white"/>
<path d="M88.5069 17.5741L87.7273 13.8953C87.6767 13.6574 87.4426 13.5054 87.2044 13.5559C86.9659 13.6063 86.8135 13.8397 86.8641 14.0772L87.6437 17.756C87.6943 17.9939 87.9284 18.1458 88.1666 18.0954C88.4051 18.0454 88.5575 17.8116 88.5069 17.5741Z" fill="#770028"/>
<path d="M95.7522 16.0587C95.5789 15.8878 95.2993 15.8896 95.1282 16.0624L92.4774 18.7366C92.306 18.9094 92.3078 19.1881 92.4811 19.3587C92.6544 19.5297 92.934 19.5279 93.1051 19.3551L95.7559 16.6809C95.9273 16.5081 95.9255 16.2297 95.7522 16.0587Z" fill="#770028"/>
<path d="M91.7623 13.8438C91.5285 13.7754 91.2831 13.9088 91.2146 14.1419L90.152 17.7495C90.0835 17.9826 90.2172 18.2273 90.451 18.2956C90.6848 18.364 90.9302 18.2306 90.9987 17.9975L92.0613 14.3899C92.1298 14.1568 91.9961 13.9124 91.7623 13.8438Z" fill="#770028"/>
<path opacity="0.15" d="M85.862 35.4354C83.8523 34.8468 82.2721 33.284 81.4118 31.0346C80.5743 28.8441 80.5211 26.2514 81.2623 23.735C82.0035 21.2183 83.4541 19.0665 85.3468 17.6753C87.2901 16.2469 89.4672 15.7844 91.4768 16.3729C93.4865 16.9615 95.0667 18.5243 95.927 20.7737C96.7645 22.9642 96.8177 25.5569 96.0765 28.0733C95.3353 30.59 93.8847 32.7418 91.992 34.133C90.0487 35.5614 87.8716 36.0239 85.862 35.4354Z" fill="#FE1157"/>
<path d="M85.7 34.3332C83.6904 33.7446 82.1102 32.1818 81.2499 29.9324C80.4123 27.7419 80.3592 25.1492 81.1004 22.6328C81.8416 20.1164 83.2921 17.9643 85.1849 16.5731C87.1282 15.1447 89.3053 14.6822 91.3149 15.2707C93.3245 15.8593 94.9048 17.4221 95.765 19.6715C96.6026 21.862 96.6557 24.4547 95.9145 26.9711C95.1733 29.4878 93.7228 31.6396 91.8301 33.0308C89.8867 34.4592 87.7097 34.9217 85.7 34.3332Z" fill="url(#paint33_linear_0_831)"/>
<path d="M95.3693 26.6591C94.3427 30.1447 91.933 32.7199 89.2807 33.5455C91.5106 32.4412 93.4444 30.1012 94.3358 27.0752C95.7907 22.136 93.9177 17.2377 90.1527 16.1351C89.0441 15.8103 87.8951 15.8512 86.7889 16.1957C88.1988 15.4972 89.7277 15.2923 91.1863 15.7193C94.9517 16.8219 96.8243 21.7199 95.3693 26.6591Z" fill="white"/>
<path d="M90.3997 33.1155C88.8883 33.9719 87.2158 34.2572 85.6264 33.7917C81.8614 32.6892 79.9884 27.7912 81.4434 22.8516C82.3923 19.6298 84.5232 17.1857 86.9351 16.1826C84.8665 17.3553 83.0991 19.5984 82.2586 22.452C80.8037 27.3916 82.6766 32.2895 86.442 33.3921C87.7507 33.7753 89.1151 33.6496 90.3997 33.1155Z" fill="#9D9B9C"/>
<path d="M90.603 17.687C92.103 18.1261 93.2828 19.293 93.9251 20.972C94.5505 22.6072 94.5901 24.5424 94.0368 26.4209C93.4836 28.2994 92.4005 29.9058 90.9877 30.9444C89.5368 32.0108 87.9119 32.356 86.4119 31.9165C84.9119 31.477 83.7322 30.3106 83.0899 28.6315C82.4645 26.9963 82.4249 25.0612 82.9782 23.1826C83.5314 21.3041 84.6144 19.6978 86.0272 18.6591C87.4777 17.5927 89.103 17.2475 90.603 17.687Z" fill="#770028"/>
<path d="M92.1455 19.6748C92.7226 19.8435 93.1762 20.2925 93.4231 20.9381C93.6634 21.5668 93.6788 22.311 93.466 23.0336C93.2531 23.7558 92.8369 24.374 92.2935 24.7733C91.7355 25.1832 91.1108 25.3162 90.5338 25.147C89.9567 24.9782 89.5031 24.5292 89.2562 23.8837C89.0158 23.255 89.0004 22.5108 89.2133 21.7882C89.4262 21.0659 89.8424 20.4478 90.3857 20.0485C90.9438 19.6386 91.5684 19.5056 92.1455 19.6748Z" fill="white"/>
<path opacity="0.2" d="M89.3594 27.4349C89.6572 26.0245 88.7519 24.6404 87.3374 24.3435C85.9229 24.0465 84.5348 24.9492 84.237 26.3596C83.9392 27.7701 84.8445 29.1541 86.259 29.4511C87.6735 29.748 89.0616 28.8453 89.3594 27.4349Z" fill="white"/>
<path opacity="0.2" d="M86.9285 29.4047C87.3642 28.6098 87.0711 27.6131 86.2739 27.1787C85.4766 26.7442 84.4771 27.0364 84.0414 27.8313C83.6056 28.6263 83.8987 29.6229 84.6959 30.0574C85.4932 30.4919 86.4927 30.1997 86.9285 29.4047Z" fill="white"/>
<path d="M88.4431 26.6741C88.8312 26.2871 88.8312 25.6598 88.4431 25.2729C88.0551 24.886 87.426 24.886 87.0379 25.2729C86.6499 25.6598 86.6499 26.2871 87.0379 26.6741C87.426 27.061 88.0551 27.061 88.4431 26.6741Z" fill="white"/>
<path d="M103.247 45.5378C104.388 45.6102 105.541 45.6218 106.671 45.4249C111.859 44.569 116.133 40.6358 118.759 36.2201L125.983 40.8861C122.809 45.106 118.503 48.5722 113.54 50.4519C111.112 51.3487 108.508 51.8142 105.917 51.7247C104.615 51.6498 103.254 51.5804 102.02 51.1471C100.835 50.5958 100.43 49.1473 100.807 47.9475C101.158 46.8168 102.016 45.665 103.247 45.5378Z" fill="url(#paint34_linear_0_831)"/>
<path opacity="0.3" d="M113.053 46.4928C113.575 45.89 114.579 46.5187 115.2 46.7032C115.923 46.9264 116.956 47.6143 116.311 48.4356C115.595 49.102 114.433 48.7531 113.745 48.1861C113.311 47.8186 112.655 47.1021 113.053 46.4928Z" fill="#FE1157"/>
<path opacity="0.3" d="M110.592 44.8353C110.949 45.0348 111.15 45.8005 110.555 45.6957C110.053 45.5287 109.746 44.1828 110.592 44.8353Z" fill="#FE1157"/>
<path opacity="0.3" d="M107.449 46.5651C108.618 44.71 110.728 48.1101 109.65 49.8571C109.055 50.9352 107.659 50.5486 107.346 49.4468C107.048 48.5719 107.056 47.3853 107.449 46.5651Z" fill="#FE1157"/>
<path opacity="0.3" d="M118.336 43.085C119.234 42.9991 118.869 44.4371 118.221 44.3216C117.402 44.01 117.339 43.1676 118.336 43.085Z" fill="#FE1157"/>
<path opacity="0.15" d="M125.983 40.8866L118.759 36.2206C118.484 36.6827 118.191 37.1397 117.881 37.5884C119.294 39.2758 121.004 40.5804 119.981 42.056C118.112 44.7495 112.227 49.3457 105.972 49.1324C102.687 49.0202 102.743 47.2297 103.536 45.5547C103.439 45.5496 103.343 45.5441 103.247 45.5379C102.016 45.665 101.158 46.8169 100.807 47.948C100.43 49.1477 100.835 50.5963 102.02 51.1475C103.254 51.5808 104.615 51.6502 105.917 51.7251C108.508 51.8146 111.112 51.3492 113.54 50.4523C118.503 48.5727 122.809 45.1061 125.983 40.8866Z" fill="#FF0037"/>
<path opacity="0.15" d="M122.324 41.7943C121.389 43.7612 115.376 51.6728 106.097 50.6564C102.988 50.3156 101.439 49.3186 100.754 48.1433C100.476 49.3007 100.899 50.6258 102.02 51.1471C103.254 51.5804 104.615 51.6498 105.917 51.7247C108.509 51.8142 111.112 51.3487 113.54 50.4519C118.503 48.5722 122.809 45.1056 125.983 40.8861L123.184 39.0777C123 40.1218 122.663 41.083 122.324 41.7943Z" fill="#FF0037"/>
<path d="M77.1592 89.1313C78.3496 89.3301 79.4429 89.7432 80.3951 90.3172L80.6347 88.8902C80.6615 88.7313 80.8135 88.6246 80.9725 88.6531C84.957 89.371 88.9415 90.0889 92.9259 90.8067C93.1413 90.8454 93.2384 91.0993 93.1025 91.2703C92.4665 92.07 91.5651 93.4491 91.1182 95.3711C90.6023 97.5898 90.9482 99.4285 91.1955 100.361C91.2295 100.49 91.1764 100.631 91.0573 100.691C91.0027 100.719 90.9416 100.728 90.8793 100.718L86.6677 100.015L90.2396 100.611C90.7565 100.698 91.1053 101.185 91.0189 101.701L90.6909 103.655C90.6635 103.818 90.5085 103.928 90.3451 103.901L85.9814 103.172C83.4684 102.753 80.8908 102.808 78.4148 103.408C77.264 103.687 76.0157 103.743 74.7421 103.53C70.2312 102.777 67.1154 98.9437 67.783 94.9674C68.4505 90.9912 72.6482 88.3787 77.1592 89.1313Z" fill="url(#paint35_linear_0_831)"/>
<path d="M80.1559 88.5128C79.939 89.8043 82.7279 91.346 86.3852 91.9564C90.0425 92.5669 93.1828 92.0145 93.3993 90.7231C93.6162 89.4316 90.8273 87.8899 87.17 87.2795C83.5127 86.669 80.3728 87.2214 80.1559 88.5128Z" fill="url(#paint36_linear_0_831)"/>
<path opacity="0.3" d="M80.5237 88.5614C80.5164 89.5672 83.4933 90.6296 87.1732 90.935C88.2163 91.0216 89.2038 91.038 90.0835 90.9942C89.4954 90.9916 88.8736 90.9653 88.231 90.912C84.5506 90.6062 82.2523 89.5909 82.2604 88.5859C82.2662 87.8662 83.1217 87.3233 85.3431 87.2123C82.5652 87.2017 80.5307 87.7325 80.5237 88.5614Z" fill="white"/>
<path d="M91.8598 89.8728C91.9725 89.2014 89.8333 88.2848 87.0817 87.8255C84.3301 87.3662 82.0082 87.5382 81.8954 88.2097C81.7827 88.8811 83.9219 89.7977 86.6735 90.257C89.4251 90.7162 91.7471 90.5442 91.8598 89.8728Z" fill="#9D9B9C"/>
<path d="M67.7852 94.9685C67.1176 98.9448 70.233 102.779 74.7443 103.531C78.5423 104.165 82.119 102.413 83.5526 99.469C81.8438 101.723 78.7204 102.965 75.4302 102.416C70.9189 101.663 67.8035 97.8294 68.4711 93.8532C68.5762 93.2256 68.77 92.6315 69.0386 92.0795C68.4051 92.9165 67.9655 93.8927 67.7852 94.9685Z" fill="#9D9B9C"/>
<path opacity="0.6" d="M72.3848 89.992C70.2956 90.9551 69.0998 92.8084 69.7131 94.1316C70.3264 95.4548 72.5174 95.7471 74.6065 94.7841C76.6957 93.821 77.8916 91.9677 77.2782 90.6445C76.6645 89.3213 74.4739 89.029 72.3848 89.992Z" fill="url(#paint37_linear_0_831)"/>
<path opacity="0.6" d="M73.1099 90.22C72.3302 90.5795 71.884 91.2711 72.1129 91.765C72.3419 92.2589 73.1593 92.3678 73.939 92.0087C74.7187 91.6492 75.1649 90.9576 74.936 90.4637C74.707 89.9698 73.8896 89.8609 73.1099 90.22Z" fill="url(#paint38_linear_0_831)"/>
<path d="M89.7094 100.523L90.2396 100.612C90.7566 100.698 91.1054 101.186 91.0189 101.701L90.691 103.655C90.6635 103.818 90.5085 103.928 90.3451 103.901L87.1396 103.366C88.2607 103.507 89.7618 103.826 89.9586 102.959C90.2491 101.676 90.4554 100.674 89.7094 100.523Z" fill="#9D9B9C"/>
<path d="M80.5296 89.5153C81.6562 90.2401 83.305 90.7077 85.3659 91.0515C88.1006 91.5078 90.5455 91.3138 91.696 90.6471C91.7088 90.6292 91.7216 90.6102 91.7341 90.5926C91.7476 90.5952 91.7608 90.5974 91.7744 90.6C92.1166 90.3837 92.3287 90.1214 92.3793 89.8185C92.4247 89.5478 92.3386 89.2658 92.1393 88.987C93.015 89.5471 93.4949 90.1586 93.4 90.7231C93.3678 90.9145 93.2707 91.0899 93.1179 91.2473C93.1128 91.255 93.108 91.263 93.1022 91.2703C92.4661 92.07 91.5648 93.4495 91.1178 95.3715C90.6023 97.5876 90.9471 99.4252 91.1944 100.359C91.2435 100.544 91.1013 100.735 90.9097 100.722C90.8998 100.721 90.8892 100.72 90.8789 100.718L83.5538 99.4687L89.8391 99.6042C89.8494 99.6057 89.8596 99.6068 89.8695 99.6079C90.0615 99.6203 90.2033 99.4299 90.1546 99.2447C89.9073 98.3113 89.5625 96.4737 90.078 94.2576C90.2678 93.4415 90.5393 92.7236 90.8379 92.1062C89.6131 92.271 88.053 92.2344 86.3852 91.9561C84.2114 91.5929 82.3447 90.9017 81.2334 90.1287C82.2571 91.4219 81.9889 93.3753 81.9889 93.3753C82.1289 91.7003 80.3948 90.3172 80.3948 90.3172L80.5296 89.5153Z" fill="#9D9B9C"/>
<path opacity="0.6" d="M82.3688 87.6266C82.3688 87.6266 78.875 88.5209 82.7777 89.9409C82.7777 89.9405 80.3325 88.6597 82.3688 87.6266Z" fill="white"/>
<path d="M82.2886 88.5501C83.0389 89.0349 84.6972 89.5548 86.6632 89.8755C88.9257 90.2441 90.891 90.2343 91.5757 89.8931C91.3116 87.083 90.9588 83.2591 90.7092 80.6857C90.6341 80.3335 90.6363 79.9638 90.7375 79.6182C90.8298 79.2174 91.3402 77.0003 91.4431 76.552L92.5723 71.646C92.8167 70.5836 91.7025 69.3992 90.0424 68.955C88.3827 68.5108 86.7596 68.9623 86.3569 69.9819L84.4968 74.6921C84.2502 75.3249 83.4661 77.2962 83.2324 77.8938C82.7513 79.1089 82.7374 80.4332 82.6755 81.7196C82.5762 83.4483 82.4172 86.2811 82.2886 88.5501Z" fill="url(#paint39_linear_0_831)"/>
<path opacity="0.3" d="M86.4478 79.5309C86.025 80.13 86.96 80.6243 87.4535 80.9411C88.1178 81.3853 89.5049 82.0283 89.9985 81.1402C90.1729 80.6835 89.7731 80.457 89.3269 80.2027C89.0781 80.0624 88.7799 79.9108 88.4487 79.7621C87.8833 79.5345 86.9468 79.0377 86.4478 79.5309Z" fill="#FE1157"/>
<path opacity="0.3" d="M84.1788 77.34C84.3667 77.5892 84.9918 77.7923 85.1387 77.45C85.3827 76.8713 83.2698 76.3635 84.1788 77.34Z" fill="#FE1157"/>
<path opacity="0.3" d="M86.1712 74.2095C84.7965 74.718 85.7473 75.9814 86.8798 76.3818C87.8833 76.7727 89.3642 76.9111 90.1425 76.2754C91.1848 74.6728 87.3766 73.8051 86.1712 74.2095Z" fill="#FE1157"/>
<path opacity="0.3" d="M86.7241 85.1259C87.1798 85.5767 87.7159 85.1558 87.8251 84.7167C87.9339 83.9711 85.6872 84.0135 86.7241 85.1259Z" fill="#FE1157"/>
<path opacity="0.15" d="M90.7093 80.6857C90.6342 80.3335 90.6364 79.9638 90.7375 79.6182C90.8298 79.2174 91.3402 77.0003 91.4432 76.552L92.5724 71.646C92.8168 70.5836 91.7026 69.3992 90.0425 68.955C88.3828 68.5108 86.7597 68.9623 86.357 69.9819L85.8382 71.2957C86.8813 71.3494 87.8108 71.8743 88.275 73.3134C89.7025 77.74 85.6931 78.7798 86.6798 84.6853C87.2752 88.2498 84.6998 87.4322 82.3674 87.163C82.3407 87.6386 82.3143 88.1051 82.289 88.5497C83.0394 89.0345 84.6976 89.5544 86.6637 89.8752C88.9261 90.2438 90.8914 90.2339 91.5762 89.8927C91.3116 87.0833 90.9588 83.2591 90.7093 80.6857Z" fill="#FF0037"/>
<path opacity="0.15" d="M90.7093 80.6857C90.6341 80.3335 90.6363 79.9638 90.7375 79.6182C90.8298 79.2175 91.3402 77.0003 91.4431 76.552L92.5723 71.646C92.8167 70.5836 91.7025 69.3992 90.0424 68.955C89.9681 68.9353 89.894 68.9177 89.82 68.9013C90.4315 70.4824 90.662 72.7504 89.7588 75.9313C87.4638 84.0153 90.0838 86.3965 87.6188 88.6805C87.0534 89.2044 86.2419 89.489 85.327 89.6172C85.7498 89.7122 86.1976 89.7996 86.6632 89.8752C88.9257 90.2438 90.891 90.2339 91.5758 89.8927C91.3116 87.0833 90.9588 83.2591 90.7093 80.6857Z" fill="#FF0037"/>
<path d="M86.6438 74.5869C86.2053 76.0994 85.3197 77.9355 85.4582 79.5696C85.5194 80.293 85.7073 82.1174 85.7806 82.8795C85.8931 84.5143 82.9836 84.4789 83.0437 82.8393C83.2163 80.9882 83.0994 78.8057 83.9208 77.1409C84.2433 76.4581 85.0848 74.892 85.4271 74.2106C85.7264 73.6268 86.8486 73.9742 86.6438 74.5869Z" fill="url(#paint40_linear_0_831)"/>
<path d="M85.5857 85.827C85.4864 86.4502 84.813 86.8714 84.082 86.7648C83.3514 86.6581 82.8458 86.0651 82.9521 85.4434C83.058 84.8249 83.7296 84.4113 84.4532 84.5162C85.1772 84.6217 85.6846 85.207 85.5857 85.827Z" fill="url(#paint41_linear_0_831)"/>
<path d="M138.714 27.6985C137.874 25.7714 135.82 27.4 134.025 28.5249C133.109 29.0988 132.463 29.7162 131.601 30.1294C131.587 30.1082 131.573 30.0866 131.56 30.0651C131.552 30.0534 131.544 30.0421 131.537 30.0304C132.462 29.3392 133.559 27.8428 134.643 26.5809C136.933 23.9173 138.42 22.7019 136.853 21.1982C135.241 19.6514 133.895 21.4298 131.675 24.1522C130.548 25.535 129.95 26.5773 129.222 27.4811C129.156 27.4281 129.089 27.377 129.022 27.3266C129.483 26.4995 129.943 25.4875 130.459 24.3934C131.955 21.219 133.056 19.2985 130.958 18.5247C128.917 17.7725 128.47 19.6112 126.973 22.7859C126.634 23.5049 126.307 24.2008 126.026 24.8544C125.877 25.1996 125.741 25.5328 125.622 25.8517C125.622 25.8517 125.574 25.8481 125.491 25.8488C125.492 25.2972 125.379 24.6096 125.083 23.7529C124.996 23.5009 124.915 23.2674 124.841 23.0511C124.71 22.6708 124.521 22.3132 124.268 22.0037C123.814 21.4473 123.236 21.1131 122.595 20.9439C122.143 20.8252 121.67 20.8296 121.232 20.9757C121.129 21.0093 121.028 21.0513 120.931 21.101C119.78 21.6852 119.73 22.8973 120.509 24.9523C120.53 25.0067 120.55 25.0601 120.569 25.113C120.688 25.428 120.794 25.7217 120.895 25.9931C121.39 27.316 121.301 28.7941 120.677 30.0848C120.384 30.6923 120.139 31.3711 119.984 32.1175C119.852 32.7506 119.962 33.5098 120.205 34.3054C120.271 34.521 120.347 34.7398 120.43 34.959C120.281 35.3463 120.04 35.6696 119.705 35.9282C119.224 35.8669 118.868 35.9417 118.705 36.1748C118.247 36.8277 119.487 38.4749 121.474 39.8533C123.462 41.2313 125.444 41.8184 125.902 41.1652C126.065 40.9321 126.012 40.5734 125.787 40.1459C125.913 39.7525 126.127 39.4215 126.43 39.1515C126.565 39.153 126.697 39.1523 126.829 39.1471C128.687 39.0777 130.208 38.2046 132.002 34.875C132.042 34.8001 132.077 34.7289 132.107 34.6616C132.432 33.9365 132.988 33.3432 133.677 32.9632C134.013 32.7776 134.347 32.5866 134.669 32.3769L135.729 31.6875C137.614 30.4337 139.531 29.5722 138.714 27.6985Z" fill="url(#paint42_linear_0_831)"/>
<path d="M132.316 23.3723C133.99 21.3845 135.145 20.3554 136.585 21.6282C137.83 22.7293 136.629 23.9758 134.32 26.6306C133.226 27.8884 130.917 30.2656 131.221 30.434C131.229 30.4457 131.237 30.4571 131.244 30.4688C131.259 30.4903 131.272 30.5122 131.287 30.5338C132.16 30.1257 132.864 29.5412 133.792 28.972C135.612 27.8563 137.693 26.2372 138.562 28.1745C138.739 28.569 138.793 28.9176 138.751 29.2347C138.959 28.7959 138.978 28.3002 138.717 27.7003C137.876 25.7728 135.822 27.4018 134.027 28.5263C133.112 29.1002 132.465 29.7184 131.603 30.1316C131.589 30.11 131.576 30.0888 131.562 30.0673C131.555 30.0556 131.547 30.0442 131.539 30.0326C132.465 29.341 133.561 27.845 134.646 26.5831C136.936 23.9195 138.423 22.7041 136.855 21.2004C135.404 19.8077 134.168 21.1112 132.316 23.3723Z" fill="#9D9B9C"/>
<path d="M129.042 18.8513C129.442 18.6504 129.916 18.6478 130.537 18.8784C132.677 19.6719 131.574 21.5917 130.078 24.766C129.563 25.8605 129.103 26.8725 128.642 27.6992C128.711 27.7507 128.779 27.8022 128.846 27.8559C128.955 27.7222 129.064 27.5856 129.176 27.4453C129.126 27.4059 129.075 27.3675 129.025 27.3291C129.485 26.502 129.945 25.4901 130.461 24.3959C131.958 21.2216 133.058 19.3011 130.96 18.5273C130.106 18.2124 129.531 18.3508 129.042 18.8513Z" fill="#9D9B9C"/>
<path opacity="0.6" d="M120.693 23.971C121.05 24.9647 121.818 25.5876 122.409 25.3626C122.999 25.1375 123.188 24.1497 122.831 23.156C122.474 22.1623 121.706 21.5394 121.115 21.7645C120.525 21.9895 120.336 22.9773 120.693 23.971Z" fill="url(#paint43_linear_0_831)"/>
<path opacity="0.6" d="M121.22 23.2371C121.398 23.7306 121.78 24.0401 122.073 23.9283C122.367 23.8165 122.46 23.3255 122.283 22.8319C122.106 22.3384 121.724 22.0289 121.43 22.1407C121.137 22.2525 121.043 22.7432 121.22 23.2371Z" fill="url(#paint44_linear_0_831)"/>
<path d="M124.029 37.6986C124.029 37.6986 124.429 38.3624 125.289 38.9579C125.602 39.0682 125.887 39.1329 126.129 39.1431C126.367 39.1533 126.6 39.1555 126.829 39.1468C125.881 39.0638 124.85 38.6938 124.029 37.6986Z" fill="#9D9B9C"/>
<path opacity="0.6" d="M119.129 36.7038C119.024 36.7922 119.808 38.2945 121.268 39.4741C122.871 40.7685 124.691 41.1904 124.753 41.0622C124.807 40.9497 123.494 40.4517 121.708 39.0518C120.012 37.7216 119.224 36.6242 119.129 36.7038Z" fill="url(#paint45_linear_0_831)"/>
<path opacity="0.6" d="M120.005 37.7224C119.942 37.7753 120.413 38.6788 121.291 39.3879C122.255 40.166 123.349 40.4199 123.386 40.3425C123.419 40.2749 122.629 39.9757 121.555 39.1336C120.535 38.3343 120.062 37.6745 120.005 37.7224Z" fill="url(#paint46_linear_0_831)"/>
<path d="M120.204 34.3051C120.306 34.6357 120.429 34.9725 120.569 35.309C121.281 36.2004 122.797 37.0688 122.797 37.0688C121.569 36.1043 120.749 35.1632 120.204 34.3051Z" fill="#9D9B9C"/>
<path opacity="0.6" d="M122.508 29.341C122.226 29.3213 120.828 30.6441 120.847 32.2264C120.868 33.9631 122.589 35.3638 122.878 35.3335C123.132 35.3072 122.203 34.1907 122.112 32.279C122.025 30.4629 122.763 29.3585 122.508 29.341Z" fill="url(#paint47_linear_0_831)"/>
<path opacity="0.6" d="M122.015 30.4593C121.846 30.4476 121.005 31.2425 121.016 32.1938C121.029 33.238 122.063 34.08 122.237 34.0621C122.39 34.0461 121.831 33.3749 121.777 32.2256C121.725 31.1337 122.168 30.4699 122.015 30.4593Z" fill="url(#paint48_linear_0_831)"/>
<path d="M126.511 32.3246C126.511 32.3246 126.105 36.07 123.661 36.4262C123.661 36.4262 125.095 35.5929 126.511 32.3246Z" fill="#9D9B9C"/>
<path d="M121.231 20.975C124.593 20.7474 125.535 26.4801 125.546 26.5495L126.026 24.8544C125.877 25.1996 125.741 25.5328 125.621 25.8517C125.621 25.8517 125.574 25.8481 125.491 25.8488C125.492 25.2972 125.378 24.6096 125.083 23.7529C124.995 23.5008 124.915 23.2674 124.841 23.0511C124.71 22.6708 124.521 22.3132 124.268 22.0037C123.814 21.447 123.236 21.1131 122.595 20.9439C122.143 20.8245 121.67 20.8292 121.231 20.975Z" fill="#9D9B9C"/>
<path d="M131.58 31.2279C131.58 31.2279 129.173 27.4208 125.318 26.8323C125.318 26.8323 128.604 27.8936 131.58 31.2279Z" fill="#9D9B9C"/>
<path d="M34.9597 5.55153C36.4703 4.08693 37.7509 6.37169 38.983 8.09166C39.6117 8.96918 39.9745 9.78532 40.6145 10.4941C40.6354 10.4798 40.6559 10.4648 40.6768 10.4499C40.6882 10.4418 40.6995 10.4345 40.7109 10.4265C40.1181 9.4368 39.6736 7.63719 39.1512 6.05934C38.0473 2.72827 37.1346 1.04082 39.1567 0.242944C41.2367 -0.577583 41.8053 1.57749 42.8216 4.93632C43.3379 6.6424 43.4943 7.83337 43.8233 8.9447C43.9047 8.92095 43.986 8.89867 44.067 8.87711C43.956 7.93749 43.916 6.82726 43.8556 5.61948C43.6797 2.11598 43.3932 -0.0770835 45.6293 0.00146207C47.8034 0.078181 47.5165 1.94866 47.6924 5.45216C47.732 6.24565 47.7693 7.01321 47.7811 7.72414C47.7873 8.09969 47.7865 8.45954 47.7756 8.79966C47.7756 8.79966 47.8206 8.81428 47.8976 8.84643C48.1064 8.3357 48.4735 7.74277 49.0733 7.06216C49.2499 6.86196 49.4133 6.67638 49.5643 6.50467C49.8299 6.20218 50.1413 5.94316 50.493 5.75246C51.1254 5.40978 51.7875 5.31918 52.4448 5.4054C52.9079 5.46641 53.3439 5.65017 53.6938 5.9512C53.7759 6.02134 53.8528 6.09806 53.9246 6.18136C54.7666 7.15751 54.3515 8.2977 52.8478 9.90405C52.8079 9.94643 52.769 9.98844 52.7306 10.0301C52.5012 10.2767 52.2909 10.5083 52.0938 10.7209C51.132 11.7574 50.6521 13.1584 50.7371 14.5883C50.777 15.2612 50.7459 15.982 50.6048 16.7313C50.485 17.3666 50.0948 18.0275 49.5668 18.6716C49.4236 18.8462 49.2704 19.0197 49.1096 19.1907C49.1 19.6053 49.2001 19.9959 49.4107 20.3616C49.8794 20.4872 50.1805 20.6915 50.2428 20.9687C50.4172 21.7458 48.6432 22.8001 46.28 23.3233C43.916 23.8453 41.8588 23.6378 41.684 22.8601C41.6217 22.5828 41.8075 22.2708 42.1779 21.9606C42.2116 21.5489 42.1394 21.1616 41.9621 20.7974C41.8372 20.7481 41.7148 20.6966 41.595 20.6421C39.9026 19.8742 38.828 18.4904 38.4367 14.7311C38.4279 14.6467 38.4224 14.5675 38.4206 14.4937C38.3968 13.6998 38.1077 12.9399 37.6153 12.3284C37.3746 12.0295 37.139 11.7263 36.9206 11.4103L36.2029 10.3713C34.9359 8.49827 33.4901 6.97558 34.9597 5.55153Z" fill="url(#paint49_linear_0_831)"/>
<path d="M42.5261 3.97185C41.7343 1.4993 41.0573 0.109595 39.2411 0.742344C37.6697 1.28924 38.3057 2.89705 39.4312 6.22775C39.9643 7.8056 41.1943 10.8791 40.8488 10.9193C40.8374 10.9273 40.8257 10.935 40.8144 10.9427C40.7927 10.9573 40.7719 10.9723 40.7506 10.9869C40.0981 10.2785 39.6698 9.4715 39.0275 8.59325C37.7689 6.87182 36.4602 4.58633 34.9188 6.04947C34.6048 6.34758 34.422 6.64934 34.3396 6.9584C34.3143 6.47398 34.4858 6.00819 34.9562 5.55226C36.4672 4.08729 37.7473 6.37242 38.9799 8.09238C39.6086 8.9699 39.9709 9.78641 40.611 10.4951C40.6323 10.4805 40.6524 10.4659 40.6733 10.4509C40.6847 10.4429 40.696 10.4356 40.7074 10.4276C40.1149 9.43752 39.6701 7.63828 39.1477 6.06043C38.0437 2.72936 37.1311 1.04191 39.1535 0.244036C41.0261 -0.495023 41.6735 1.17891 42.5261 3.97185Z" fill="#9D9B9C"/>
<path d="M47.2767 1.0295C46.9828 0.691936 46.545 0.510368 45.883 0.488083C43.6011 0.411729 43.8905 2.60516 44.0653 6.10866C44.1254 7.31643 44.165 8.42667 44.2767 9.36629C44.1935 9.38785 44.1111 9.41013 44.0283 9.43388C43.9788 9.26911 43.9294 9.10106 43.8799 8.92899C43.9411 8.91146 44.0023 8.89502 44.0638 8.87858C43.9528 7.93895 43.9129 6.82872 43.8524 5.62095C43.6766 2.11745 43.3901 -0.0756187 45.6261 0.00292691C46.5351 0.0354411 47.0144 0.381042 47.2767 1.0295Z" fill="#9D9B9C"/>
<path opacity="0.6" d="M53.0495 8.92679C52.3409 9.71078 51.393 9.9961 50.9325 9.56465C50.4723 9.13283 50.6734 8.14754 51.3824 7.36355C52.091 6.57955 53.0388 6.29423 53.4994 6.72568C53.9596 7.1575 53.7584 8.14279 53.0495 8.92679Z" fill="url(#paint50_linear_0_831)"/>
<path opacity="0.6" d="M52.8417 8.04818C52.4896 8.43762 52.0188 8.57937 51.7898 8.36492C51.5612 8.15047 51.6609 7.66057 52.0129 7.27113C52.365 6.88169 52.8359 6.73994 53.0648 6.95439C53.2938 7.1692 53.1938 7.65874 52.8417 8.04818Z" fill="url(#paint51_linear_0_831)"/>
<path d="M44.7358 20.363C44.7358 20.363 44.1125 20.8255 43.0899 21.0509C42.758 21.0345 42.47 20.9863 42.2421 20.9041C42.0183 20.8237 41.8021 20.7375 41.594 20.6425C42.5019 20.9245 43.597 20.9728 44.7358 20.363Z" fill="#9D9B9C"/>
<path opacity="0.6" d="M49.6468 21.2983C49.7106 21.4199 48.4132 22.513 46.6128 23.0511C44.6368 23.6415 42.7928 23.343 42.7848 23.2009C42.7778 23.0763 44.1822 23.1132 46.3673 22.494C48.4432 21.9055 49.5893 21.1883 49.6468 21.2983Z" fill="url(#paint52_linear_0_831)"/>
<path opacity="0.6" d="M48.4491 21.9087C48.4872 21.9818 47.7076 22.639 46.6249 22.9627C45.4367 23.3178 44.3284 23.1381 44.3233 23.0526C44.3189 22.9777 45.1634 23 46.4772 22.6277C47.7255 22.2741 48.4143 21.8426 48.4491 21.9087Z" fill="url(#paint53_linear_0_831)"/>
<path d="M49.5659 18.6716C49.3468 18.939 49.1035 19.2039 48.8466 19.4625C47.8479 20.0171 46.1152 20.2469 46.1152 20.2469C47.6182 19.8194 48.7356 19.2597 49.5659 18.6716Z" fill="#9D9B9C"/>
<path opacity="0.6" d="M49.3255 13.2074C49.5941 13.2961 50.384 15.049 49.7637 16.5055C49.083 18.1042 46.9576 18.7483 46.7015 18.6109C46.4772 18.4904 47.7614 17.8094 48.5737 16.0756C49.345 14.4279 49.0834 13.1274 49.3255 13.2074Z" fill="url(#paint54_linear_0_831)"/>
<path opacity="0.6" d="M49.3556 14.4283C49.5171 14.4816 49.992 15.5356 49.619 16.4113C49.2097 17.3724 47.9318 17.7597 47.7779 17.6771C47.6431 17.6048 48.415 17.1953 48.9034 16.1526C49.3673 15.1622 49.2101 14.38 49.3556 14.4283Z" fill="url(#paint55_linear_0_831)"/>
<path d="M44.4863 14.4517C44.4863 14.4517 43.4355 18.0702 45.5605 19.3251C45.5605 19.3251 44.5515 18.0111 44.4863 14.4517Z" fill="#9D9B9C"/>
<path d="M53.6929 5.95156C50.6702 4.46833 47.6156 9.41487 47.5786 9.47479L47.7805 7.72487C47.7867 8.10042 47.786 8.46027 47.775 8.80039C47.775 8.80039 47.8201 8.81501 47.897 8.84715C48.1058 8.33643 48.473 7.7435 49.0727 7.06289C49.2493 6.86269 49.4127 6.6771 49.5637 6.5054C49.8293 6.20291 50.1408 5.94389 50.4925 5.75319C51.1249 5.41051 51.7869 5.31991 52.4442 5.40613C52.907 5.46714 53.343 5.65053 53.6929 5.95156Z" fill="#9D9B9C"/>
<path d="M40.215 11.5181C40.215 11.5181 43.8909 8.90745 47.6816 9.82259C47.6816 9.82259 44.2375 9.55992 40.215 11.5181Z" fill="#9D9B9C"/>
<defs>
<linearGradient id="paint0_linear_0_831" x1="39.0925" y1="66.0728" x2="30.4403" y2="76.3104" gradientUnits="userSpaceOnUse">
<stop stop-color="#EEEEEE"/>
<stop offset="1" stop-color="#CFCFCF"/>
</linearGradient>
<linearGradient id="paint1_linear_0_831" x1="46.6223" y1="63.3341" x2="44.513" y2="76.0523" gradientUnits="userSpaceOnUse">
<stop stop-color="#EEEEEE"/>
<stop offset="1" stop-color="#CFCFCF"/>
</linearGradient>
<linearGradient id="paint2_linear_0_831" x1="33.8877" y1="57.1815" x2="36.852" y2="63.871" gradientUnits="userSpaceOnUse">
<stop offset="2.1e-07" stop-color="white"/>
<stop offset="1" stop-color="white"/>
</linearGradient>
<linearGradient id="paint3_linear_0_831" x1="35.8569" y1="58.53" x2="36.9631" y2="61.0265" gradientUnits="userSpaceOnUse">
<stop offset="2.1e-07" stop-color="white"/>
<stop offset="1" stop-color="white"/>
</linearGradient>
<linearGradient id="paint4_linear_0_831" x1="50.5756" y1="48.8247" x2="56.6835" y2="73.6431" gradientUnits="userSpaceOnUse">
<stop offset="7e-08" stop-color="#FFABCD"/>
<stop offset="0.5" stop-color="#FF78AF"/>
<stop offset="1" stop-color="#FF0037"/>
</linearGradient>
<linearGradient id="paint5_linear_0_831" x1="48.9398" y1="51.3765" x2="53.471" y2="62.6468" gradientUnits="userSpaceOnUse">
<stop stop-color="white"/>
<stop offset="1" stop-color="white"/>
</linearGradient>
<linearGradient id="paint6_linear_0_831" x1="43.633" y1="55.742" x2="47.9288" y2="66.7439" gradientUnits="userSpaceOnUse">
<stop stop-color="white"/>
<stop offset="1" stop-color="white"/>
</linearGradient>
<linearGradient id="paint7_linear_0_831" x1="140.476" y1="120.32" x2="82.7137" y2="65.4026" gradientUnits="userSpaceOnUse">
<stop offset="2.1e-07" stop-color="#FFB600"/>
<stop offset="1" stop-color="#C97700"/>
</linearGradient>
<linearGradient id="paint8_linear_0_831" x1="104.385" y1="113.817" x2="102.281" y2="100.291" gradientUnits="userSpaceOnUse">
<stop offset="2.1e-07" stop-color="#FFB600"/>
<stop offset="1" stop-color="#C97700"/>
</linearGradient>
<linearGradient id="paint9_linear_0_831" x1="106.708" y1="111.186" x2="105.749" y2="105.023" gradientUnits="userSpaceOnUse">
<stop offset="2.1e-07" stop-color="#FFB600"/>
<stop offset="1" stop-color="#C97700"/>
</linearGradient>
<linearGradient id="paint10_linear_0_831" x1="112.376" y1="83.844" x2="105.182" y2="95.5022" gradientUnits="userSpaceOnUse">
<stop offset="2.1e-07" stop-color="#FFB600"/>
<stop offset="1" stop-color="#C97700"/>
</linearGradient>
<linearGradient id="paint11_linear_0_831" x1="113.489" y1="87.1682" x2="110.212" y2="92.4803" gradientUnits="userSpaceOnUse">
<stop offset="2.1e-07" stop-color="#FFB600"/>
<stop offset="1" stop-color="#C97700"/>
</linearGradient>
<linearGradient id="paint12_linear_0_831" x1="138.63" y1="98.628" x2="53.6726" y2="120.465" gradientUnits="userSpaceOnUse">
<stop offset="2.1e-07" stop-color="#FFB600"/>
<stop offset="1" stop-color="#C97700"/>
</linearGradient>
<linearGradient id="paint13_linear_0_831" x1="45.0766" y1="117.913" x2="80.8716" y2="73.0764" gradientUnits="userSpaceOnUse">
<stop offset="1e-08" stop-color="#3BDAE2"/>
<stop offset="1" stop-color="#006F96"/>
</linearGradient>
<linearGradient id="paint14_linear_0_831" x1="64.0337" y1="105.946" x2="66.8492" y2="95.5073" gradientUnits="userSpaceOnUse">
<stop offset="2.1e-07" stop-color="white"/>
<stop offset="1" stop-color="white"/>
</linearGradient>
<linearGradient id="paint15_linear_0_831" x1="66.1798" y1="111.054" x2="67.4971" y2="99.6921" gradientUnits="userSpaceOnUse">
<stop offset="2.1e-07" stop-color="white"/>
<stop offset="1" stop-color="white"/>
</linearGradient>
<linearGradient id="paint16_linear_0_831" x1="3.25638" y1="93.4552" x2="44.7283" y2="57.8379" gradientUnits="userSpaceOnUse">
<stop offset="1e-08" stop-color="#3BDAE2"/>
<stop offset="1" stop-color="#006F96"/>
</linearGradient>
<linearGradient id="paint17_linear_0_831" x1="16.8691" y1="87.9513" x2="24.4345" y2="78.2228" gradientUnits="userSpaceOnUse">
<stop offset="2.1e-07" stop-color="white"/>
<stop offset="1" stop-color="white"/>
</linearGradient>
<linearGradient id="paint18_linear_0_831" x1="16.2669" y1="87.7809" x2="21.839" y2="79.8691" gradientUnits="userSpaceOnUse">
<stop offset="2.1e-07" stop-color="white"/>
<stop offset="1" stop-color="white"/>
</linearGradient>
<linearGradient id="paint19_linear_0_831" x1="105.225" y1="66.6953" x2="101.03" y2="89.5385" gradientUnits="userSpaceOnUse">
<stop offset="1e-08" stop-color="#3BDAE2"/>
<stop offset="1" stop-color="#006F96"/>
</linearGradient>
<linearGradient id="paint20_linear_0_831" x1="86.4354" y1="119.884" x2="98.4145" y2="103.505" gradientUnits="userSpaceOnUse">
<stop offset="1e-08" stop-color="#3BDAE2"/>
<stop offset="1" stop-color="#006F96"/>
</linearGradient>
<linearGradient id="paint21_linear_0_831" x1="30.9966" y1="71.9893" x2="44.9381" y2="84.6399" gradientUnits="userSpaceOnUse">
<stop offset="2.1e-07" stop-color="#FFB600"/>
<stop offset="1" stop-color="#C97700"/>
</linearGradient>
<linearGradient id="paint22_linear_0_831" x1="35.423" y1="31.6727" x2="63.8247" y2="31.1269" gradientUnits="userSpaceOnUse">
<stop offset="7e-08" stop-color="#FFABCD"/>
<stop offset="0.5" stop-color="#FF78AF"/>
<stop offset="1" stop-color="#FF0037"/>
</linearGradient>
<linearGradient id="paint23_linear_0_831" x1="57.4119" y1="33.3099" x2="109.114" y2="54.752" gradientUnits="userSpaceOnUse">
<stop offset="7e-08" stop-color="#FFABCD"/>
<stop offset="0.5" stop-color="#FF78AF"/>
<stop offset="1" stop-color="#FF0037"/>
</linearGradient>
<linearGradient id="paint24_linear_0_831" x1="84.5162" y1="27.6884" x2="69.8548" y2="77.7538" gradientUnits="userSpaceOnUse">
<stop offset="0.1412" stop-color="#F8CDB8"/>
<stop offset="0.1462" stop-color="#F8CCB7"/>
<stop offset="0.266" stop-color="#F3B7A3"/>
<stop offset="0.3847" stop-color="#F0AB97"/>
<stop offset="0.5" stop-color="#EFA793"/>
<stop offset="0.5779" stop-color="#EFA28F"/>
<stop offset="0.6749" stop-color="#EE9282"/>
<stop offset="0.7821" stop-color="#ED796D"/>
<stop offset="0.8958" stop-color="#EC564F"/>
<stop offset="1" stop-color="#EA2F2F"/>
</linearGradient>
<linearGradient id="paint25_linear_0_831" x1="56.3913" y1="17.211" x2="69.6493" y2="26.8542" gradientUnits="userSpaceOnUse">
<stop stop-color="white"/>
<stop offset="1" stop-color="white"/>
</linearGradient>
<linearGradient id="paint26_linear_0_831" x1="48.9804" y1="33.7563" x2="60.3013" y2="47.3746" gradientUnits="userSpaceOnUse">
<stop stop-color="white"/>
<stop offset="1" stop-color="white"/>
</linearGradient>
<linearGradient id="paint27_linear_0_831" x1="96.1628" y1="6.4401" x2="100.823" y2="13.5151" gradientUnits="userSpaceOnUse">
<stop offset="1e-08" stop-color="#E565BE"/>
<stop offset="0.5011" stop-color="#A60065"/>
<stop offset="1" stop-color="#380000"/>
</linearGradient>
<linearGradient id="paint28_linear_0_831" x1="85.993" y1="-0.541019" x2="92.2692" y2="18.4831" gradientUnits="userSpaceOnUse">
<stop offset="1e-08" stop-color="#E565BE"/>
<stop offset="0.5011" stop-color="#A60065"/>
<stop offset="1" stop-color="#380000"/>
</linearGradient>
<linearGradient id="paint29_linear_0_831" x1="69.8073" y1="38.7587" x2="86.1979" y2="43.5864" gradientUnits="userSpaceOnUse">
<stop offset="0.1071" stop-color="#770028"/>
<stop offset="0.3986" stop-color="#7C0720"/>
<stop offset="1" stop-color="#841313"/>
</linearGradient>
<linearGradient id="paint30_linear_0_831" x1="81.2023" y1="45.2824" x2="82.9521" y2="45.7978" gradientUnits="userSpaceOnUse">
<stop stop-color="#EEEEEE"/>
<stop offset="1" stop-color="#CFCFCF"/>
</linearGradient>
<linearGradient id="paint31_linear_0_831" x1="70.602" y1="42.1154" x2="72.3082" y2="42.618" gradientUnits="userSpaceOnUse">
<stop stop-color="#EEEEEE"/>
<stop offset="1" stop-color="#CFCFCF"/>
</linearGradient>
<linearGradient id="paint32_linear_0_831" x1="77.882" y1="21.4483" x2="69.8985" y2="25.3257" gradientUnits="userSpaceOnUse">
<stop stop-color="#EEEEEE"/>
<stop offset="1" stop-color="#CFCFCF"/>
</linearGradient>
<linearGradient id="paint33_linear_0_831" x1="89.3801" y1="24.3804" x2="80.1975" y2="28.8403" gradientUnits="userSpaceOnUse">
<stop stop-color="#EEEEEE"/>
<stop offset="1" stop-color="#CFCFCF"/>
</linearGradient>
<linearGradient id="paint34_linear_0_831" x1="111.627" y1="33.2088" x2="114.586" y2="53.8" gradientUnits="userSpaceOnUse">
<stop offset="7e-08" stop-color="#FFABCD"/>
<stop offset="0.5" stop-color="#FF78AF"/>
<stop offset="1" stop-color="#FF0037"/>
</linearGradient>
<linearGradient id="paint35_linear_0_831" x1="80.1759" y1="92.7842" x2="83.0859" y2="105.854" gradientUnits="userSpaceOnUse">
<stop stop-color="#EEEEEE"/>
<stop offset="1" stop-color="#CFCFCF"/>
</linearGradient>
<linearGradient id="paint36_linear_0_831" x1="82.5317" y1="85.1449" x2="91.3909" y2="94.5326" gradientUnits="userSpaceOnUse">
<stop stop-color="#EEEEEE"/>
<stop offset="1" stop-color="#CFCFCF"/>
</linearGradient>
<linearGradient id="paint37_linear_0_831" x1="69.9249" y1="91.555" x2="77.0645" y2="93.2302" gradientUnits="userSpaceOnUse">
<stop offset="2.1e-07" stop-color="white"/>
<stop offset="1" stop-color="white"/>
</linearGradient>
<linearGradient id="paint38_linear_0_831" x1="72.1918" y1="90.8035" x2="74.8562" y2="91.4286" gradientUnits="userSpaceOnUse">
<stop offset="2.1e-07" stop-color="white"/>
<stop offset="1" stop-color="white"/>
</linearGradient>
<linearGradient id="paint39_linear_0_831" x1="73.3164" y1="73.2452" x2="96.8392" y2="83.3864" gradientUnits="userSpaceOnUse">
<stop offset="7e-08" stop-color="#FFABCD"/>
<stop offset="0.5" stop-color="#FF78AF"/>
<stop offset="1" stop-color="#FF0037"/>
</linearGradient>
<linearGradient id="paint40_linear_0_831" x1="74.3692" y1="76.0855" x2="86.1172" y2="79.2792" gradientUnits="userSpaceOnUse">
<stop stop-color="white"/>
<stop offset="1" stop-color="white"/>
</linearGradient>
<linearGradient id="paint41_linear_0_831" x1="74.6561" y1="82.9393" x2="86.0476" y2="86.1595" gradientUnits="userSpaceOnUse">
<stop stop-color="white"/>
<stop offset="1" stop-color="white"/>
</linearGradient>
<linearGradient id="paint42_linear_0_831" x1="125.886" y1="20.0178" x2="132.306" y2="48.0186" gradientUnits="userSpaceOnUse">
<stop stop-color="#EEEEEE"/>
<stop offset="1" stop-color="#CFCFCF"/>
</linearGradient>
<linearGradient id="paint43_linear_0_831" x1="120.364" y1="22.6538" x2="123.155" y2="24.4807" gradientUnits="userSpaceOnUse">
<stop offset="2.1e-07" stop-color="white"/>
<stop offset="1" stop-color="white"/>
</linearGradient>
<linearGradient id="paint44_linear_0_831" x1="121.057" y1="22.5824" x2="122.444" y2="23.49" gradientUnits="userSpaceOnUse">
<stop offset="2.1e-07" stop-color="white"/>
<stop offset="1" stop-color="white"/>
</linearGradient>
<linearGradient id="paint45_linear_0_831" x1="118.806" y1="37.1967" x2="124.74" y2="41.0815" gradientUnits="userSpaceOnUse">
<stop offset="2.1e-07" stop-color="white"/>
<stop offset="1" stop-color="white"/>
</linearGradient>
<linearGradient id="paint46_linear_0_831" x1="119.811" y1="38.0187" x2="123.379" y2="40.3544" gradientUnits="userSpaceOnUse">
<stop offset="2.1e-07" stop-color="white"/>
<stop offset="1" stop-color="white"/>
</linearGradient>
<linearGradient id="paint47_linear_0_831" x1="120.896" y1="31.1948" x2="124.196" y2="33.3549" gradientUnits="userSpaceOnUse">
<stop offset="2.1e-07" stop-color="white"/>
<stop offset="1" stop-color="white"/>
</linearGradient>
<linearGradient id="paint48_linear_0_831" x1="121.046" y1="31.5737" x2="123.03" y2="32.8724" gradientUnits="userSpaceOnUse">
<stop offset="2.1e-07" stop-color="white"/>
<stop offset="1" stop-color="white"/>
</linearGradient>
<linearGradient id="paint49_linear_0_831" x1="49.7528" y1="3.30452" x2="33.1825" y2="26.7987" gradientUnits="userSpaceOnUse">
<stop stop-color="#EEEEEE"/>
<stop offset="1" stop-color="#CFCFCF"/>
</linearGradient>
<linearGradient id="paint50_linear_0_831" x1="53.8556" y1="7.83298" x2="50.5773" y2="8.46095" gradientUnits="userSpaceOnUse">
<stop offset="2.1e-07" stop-color="white"/>
<stop offset="1" stop-color="white"/>
</linearGradient>
<linearGradient id="paint51_linear_0_831" x1="53.2419" y1="7.50456" x2="51.6132" y2="7.81656" gradientUnits="userSpaceOnUse">
<stop offset="2.1e-07" stop-color="white"/>
<stop offset="1" stop-color="white"/>
</linearGradient>
<linearGradient id="paint52_linear_0_831" x1="49.7584" y1="21.8765" x2="42.7869" y2="23.2119" gradientUnits="userSpaceOnUse">
<stop offset="2.1e-07" stop-color="white"/>
<stop offset="1" stop-color="white"/>
</linearGradient>
<linearGradient id="paint53_linear_0_831" x1="48.5161" y1="22.2565" x2="44.3246" y2="23.0594" gradientUnits="userSpaceOnUse">
<stop offset="2.1e-07" stop-color="white"/>
<stop offset="1" stop-color="white"/>
</linearGradient>
<linearGradient id="paint54_linear_0_831" x1="50.1109" y1="15.5328" x2="46.2346" y2="16.2753" gradientUnits="userSpaceOnUse">
<stop offset="2.1e-07" stop-color="white"/>
<stop offset="1" stop-color="white"/>
</linearGradient>
<linearGradient id="paint55_linear_0_831" x1="49.8279" y1="15.8265" x2="47.4973" y2="16.2729" gradientUnits="userSpaceOnUse">
<stop offset="2.1e-07" stop-color="white"/>
<stop offset="1" stop-color="white"/>
</linearGradient>
</defs>
</svg>
